<mxfile host="app.diagrams.net" modified="2020-04-20T17:07:22.744Z" agent="5.0 (Macintosh; Intel Mac OS X 10_15_3) AppleWebKit/605.1.15 (KHTML, like Gecko) Version/13.0.5 Safari/605.1.15" etag="bTnRPnIUj9OjNR5sEDk-" version="12.9.14" type="github">
  <diagram id="Ovb1fUJxyI7AqCsPBzT5" name="Page-1">
    <mxGraphModel dx="1773" dy="1831" grid="1" gridSize="10" guides="1" tooltips="1" connect="1" arrows="1" fold="1" page="1" pageScale="1" pageWidth="827" pageHeight="1169" math="0" shadow="0">
      <root>
        <mxCell id="0" />
        <mxCell id="1" parent="0" />
        <mxCell id="YPtFgZ8LJnQY6-V_tGsR-27" style="edgeStyle=orthogonalEdgeStyle;rounded=0;orthogonalLoop=1;jettySize=auto;html=1;exitX=1;exitY=0.5;exitDx=0;exitDy=0;entryX=0;entryY=0.5;entryDx=0;entryDy=0;endArrow=none;endFill=0;startArrow=block;startFill=1;strokeWidth=2;" parent="1" source="YPtFgZ8LJnQY6-V_tGsR-1" target="YPtFgZ8LJnQY6-V_tGsR-8" edge="1">
          <mxGeometry relative="1" as="geometry" />
        </mxCell>
        <mxCell id="YPtFgZ8LJnQY6-V_tGsR-1" value="is_located" style="rhombus;whiteSpace=wrap;html=1;" parent="1" vertex="1">
          <mxGeometry x="-380" y="151.16" width="120" height="80" as="geometry" />
        </mxCell>
        <mxCell id="YPtFgZ8LJnQY6-V_tGsR-26" style="edgeStyle=orthogonalEdgeStyle;rounded=0;orthogonalLoop=1;jettySize=auto;html=1;exitX=1;exitY=0.5;exitDx=0;exitDy=0;entryX=0;entryY=0.5;entryDx=0;entryDy=0;endArrow=none;endFill=0;" parent="1" source="YPtFgZ8LJnQY6-V_tGsR-2" target="YPtFgZ8LJnQY6-V_tGsR-1" edge="1">
          <mxGeometry relative="1" as="geometry" />
        </mxCell>
        <mxCell id="6p9KUuZENFY64v_fNxvY-93" style="edgeStyle=orthogonalEdgeStyle;rounded=0;orthogonalLoop=1;jettySize=auto;html=1;exitX=0.5;exitY=0;exitDx=0;exitDy=0;endArrow=none;endFill=0;fontSize=10;" parent="1" source="YPtFgZ8LJnQY6-V_tGsR-2" target="6p9KUuZENFY64v_fNxvY-46" edge="1">
          <mxGeometry relative="1" as="geometry">
            <Array as="points">
              <mxPoint x="-480" y="150" />
              <mxPoint x="-435" y="150" />
            </Array>
          </mxGeometry>
        </mxCell>
        <mxCell id="YPtFgZ8LJnQY6-V_tGsR-2" value="state" style="rounded=0;whiteSpace=wrap;html=1;" parent="1" vertex="1">
          <mxGeometry x="-540" y="171.16" width="120" height="40" as="geometry" />
        </mxCell>
        <mxCell id="YPtFgZ8LJnQY6-V_tGsR-52" style="edgeStyle=orthogonalEdgeStyle;rounded=0;orthogonalLoop=1;jettySize=auto;html=1;exitX=1;exitY=0.5;exitDx=0;exitDy=0;entryX=0;entryY=0.5;entryDx=0;entryDy=0;startArrow=none;startFill=0;endArrow=none;endFill=0;strokeWidth=1;" parent="1" source="YPtFgZ8LJnQY6-V_tGsR-3" target="YPtFgZ8LJnQY6-V_tGsR-35" edge="1">
          <mxGeometry relative="1" as="geometry" />
        </mxCell>
        <mxCell id="lrEihr4bJ9vNrvf76rqn-15" style="edgeStyle=orthogonalEdgeStyle;rounded=0;orthogonalLoop=1;jettySize=auto;html=1;exitX=0.5;exitY=0;exitDx=0;exitDy=0;entryX=0.5;entryY=1;entryDx=0;entryDy=0;startArrow=none;startFill=0;endArrow=none;endFill=0;strokeWidth=1;" parent="1" source="YPtFgZ8LJnQY6-V_tGsR-3" target="lrEihr4bJ9vNrvf76rqn-13" edge="1">
          <mxGeometry relative="1" as="geometry">
            <Array as="points">
              <mxPoint x="280" y="14.879999999999995" />
              <mxPoint x="234" y="14.879999999999995" />
            </Array>
          </mxGeometry>
        </mxCell>
        <mxCell id="YPtFgZ8LJnQY6-V_tGsR-3" value="categorie" style="rounded=0;whiteSpace=wrap;html=1;" parent="1" vertex="1">
          <mxGeometry x="220" y="34.760000000000005" width="120" height="40" as="geometry" />
        </mxCell>
        <mxCell id="6p9KUuZENFY64v_fNxvY-100" style="edgeStyle=orthogonalEdgeStyle;rounded=0;orthogonalLoop=1;jettySize=auto;html=1;exitX=0.5;exitY=1;exitDx=0;exitDy=0;entryX=1;entryY=0.5;entryDx=0;entryDy=0;endArrow=none;endFill=0;fontSize=10;" parent="1" target="6p9KUuZENFY64v_fNxvY-94" edge="1">
          <mxGeometry relative="1" as="geometry">
            <mxPoint x="828" y="349.94" as="sourcePoint" />
            <Array as="points">
              <mxPoint x="828" y="384.94" />
            </Array>
          </mxGeometry>
        </mxCell>
        <mxCell id="6p9KUuZENFY64v_fNxvY-79" style="edgeStyle=orthogonalEdgeStyle;rounded=0;orthogonalLoop=1;jettySize=auto;html=1;exitX=1;exitY=0.5;exitDx=0;exitDy=0;entryX=0;entryY=0.5;entryDx=0;entryDy=0;endArrow=none;endFill=0;fontSize=9;" parent="1" source="YPtFgZ8LJnQY6-V_tGsR-6" target="6p9KUuZENFY64v_fNxvY-20" edge="1">
          <mxGeometry relative="1" as="geometry">
            <Array as="points">
              <mxPoint x="1180" y="180" />
              <mxPoint x="1180" y="-40" />
              <mxPoint x="1200" y="-40" />
            </Array>
          </mxGeometry>
        </mxCell>
        <mxCell id="6p9KUuZENFY64v_fNxvY-80" style="edgeStyle=orthogonalEdgeStyle;rounded=0;orthogonalLoop=1;jettySize=auto;html=1;exitX=1;exitY=0.5;exitDx=0;exitDy=0;entryX=0;entryY=0.5;entryDx=0;entryDy=0;endArrow=none;endFill=0;fontSize=9;" parent="1" source="YPtFgZ8LJnQY6-V_tGsR-6" target="6p9KUuZENFY64v_fNxvY-21" edge="1">
          <mxGeometry relative="1" as="geometry">
            <Array as="points">
              <mxPoint x="1180" y="180" />
              <mxPoint x="1180" />
              <mxPoint x="1210" />
            </Array>
          </mxGeometry>
        </mxCell>
        <mxCell id="6p9KUuZENFY64v_fNxvY-81" style="edgeStyle=orthogonalEdgeStyle;rounded=0;orthogonalLoop=1;jettySize=auto;html=1;exitX=1;exitY=0.5;exitDx=0;exitDy=0;entryX=0;entryY=0.5;entryDx=0;entryDy=0;endArrow=none;endFill=0;fontSize=9;" parent="1" source="YPtFgZ8LJnQY6-V_tGsR-6" target="6p9KUuZENFY64v_fNxvY-22" edge="1">
          <mxGeometry relative="1" as="geometry">
            <Array as="points">
              <mxPoint x="1180" y="180" />
              <mxPoint x="1180" y="40" />
              <mxPoint x="1190" y="40" />
            </Array>
          </mxGeometry>
        </mxCell>
        <mxCell id="6p9KUuZENFY64v_fNxvY-82" style="edgeStyle=orthogonalEdgeStyle;rounded=0;orthogonalLoop=1;jettySize=auto;html=1;exitX=1;exitY=0.5;exitDx=0;exitDy=0;entryX=0;entryY=0.5;entryDx=0;entryDy=0;endArrow=none;endFill=0;fontSize=9;" parent="1" source="YPtFgZ8LJnQY6-V_tGsR-6" target="6p9KUuZENFY64v_fNxvY-23" edge="1">
          <mxGeometry relative="1" as="geometry">
            <Array as="points">
              <mxPoint x="1180" y="180" />
              <mxPoint x="1180" y="80" />
              <mxPoint x="1190" y="80" />
            </Array>
          </mxGeometry>
        </mxCell>
        <mxCell id="6p9KUuZENFY64v_fNxvY-83" style="edgeStyle=orthogonalEdgeStyle;rounded=0;orthogonalLoop=1;jettySize=auto;html=1;exitX=1;exitY=0.5;exitDx=0;exitDy=0;entryX=0;entryY=0.5;entryDx=0;entryDy=0;endArrow=none;endFill=0;fontSize=9;" parent="1" source="YPtFgZ8LJnQY6-V_tGsR-6" target="6p9KUuZENFY64v_fNxvY-24" edge="1">
          <mxGeometry relative="1" as="geometry">
            <Array as="points">
              <mxPoint x="1180" y="180" />
              <mxPoint x="1180" y="120" />
              <mxPoint x="1190" y="120" />
            </Array>
          </mxGeometry>
        </mxCell>
        <mxCell id="6p9KUuZENFY64v_fNxvY-84" style="edgeStyle=orthogonalEdgeStyle;rounded=0;orthogonalLoop=1;jettySize=auto;html=1;exitX=1;exitY=0.5;exitDx=0;exitDy=0;entryX=0;entryY=0.5;entryDx=0;entryDy=0;endArrow=none;endFill=0;fontSize=9;" parent="1" source="YPtFgZ8LJnQY6-V_tGsR-6" target="6p9KUuZENFY64v_fNxvY-25" edge="1">
          <mxGeometry relative="1" as="geometry">
            <Array as="points">
              <mxPoint x="1180" y="180" />
              <mxPoint x="1180" y="160" />
              <mxPoint x="1190" y="160" />
            </Array>
          </mxGeometry>
        </mxCell>
        <mxCell id="6p9KUuZENFY64v_fNxvY-85" style="edgeStyle=orthogonalEdgeStyle;rounded=0;orthogonalLoop=1;jettySize=auto;html=1;exitX=1;exitY=0.5;exitDx=0;exitDy=0;entryX=0;entryY=0.5;entryDx=0;entryDy=0;endArrow=none;endFill=0;fontSize=9;" parent="1" source="YPtFgZ8LJnQY6-V_tGsR-6" target="6p9KUuZENFY64v_fNxvY-26" edge="1">
          <mxGeometry relative="1" as="geometry">
            <Array as="points">
              <mxPoint x="1180" y="180" />
              <mxPoint x="1180" y="200" />
              <mxPoint x="1190" y="200" />
            </Array>
          </mxGeometry>
        </mxCell>
        <mxCell id="6p9KUuZENFY64v_fNxvY-87" style="edgeStyle=orthogonalEdgeStyle;rounded=0;orthogonalLoop=1;jettySize=auto;html=1;exitX=1;exitY=0.5;exitDx=0;exitDy=0;entryX=0;entryY=0.5;entryDx=0;entryDy=0;endArrow=none;endFill=0;fontSize=9;" parent="1" source="YPtFgZ8LJnQY6-V_tGsR-6" target="6p9KUuZENFY64v_fNxvY-28" edge="1">
          <mxGeometry relative="1" as="geometry">
            <Array as="points">
              <mxPoint x="1180" y="180" />
              <mxPoint x="1180" y="280" />
              <mxPoint x="1190" y="280" />
            </Array>
          </mxGeometry>
        </mxCell>
        <mxCell id="6p9KUuZENFY64v_fNxvY-88" style="edgeStyle=orthogonalEdgeStyle;rounded=0;orthogonalLoop=1;jettySize=auto;html=1;exitX=1;exitY=0.5;exitDx=0;exitDy=0;entryX=0;entryY=0.5;entryDx=0;entryDy=0;endArrow=none;endFill=0;fontSize=9;" parent="1" source="YPtFgZ8LJnQY6-V_tGsR-6" target="6p9KUuZENFY64v_fNxvY-29" edge="1">
          <mxGeometry relative="1" as="geometry">
            <Array as="points">
              <mxPoint x="1180" y="180" />
              <mxPoint x="1180" y="320" />
            </Array>
          </mxGeometry>
        </mxCell>
        <mxCell id="6p9KUuZENFY64v_fNxvY-90" style="edgeStyle=orthogonalEdgeStyle;rounded=0;orthogonalLoop=1;jettySize=auto;html=1;entryX=0;entryY=0.5;entryDx=0;entryDy=0;endArrow=none;endFill=0;fontSize=9;exitX=1;exitY=0.5;exitDx=0;exitDy=0;" parent="1" source="YPtFgZ8LJnQY6-V_tGsR-6" target="6p9KUuZENFY64v_fNxvY-31" edge="1">
          <mxGeometry relative="1" as="geometry">
            <Array as="points">
              <mxPoint x="1180" y="180" />
              <mxPoint x="1180" y="400" />
              <mxPoint x="1190" y="400" />
            </Array>
            <mxPoint x="1200" y="390" as="sourcePoint" />
          </mxGeometry>
        </mxCell>
        <mxCell id="azv66595Vb5ihQFNeoaP-8" style="edgeStyle=orthogonalEdgeStyle;rounded=0;orthogonalLoop=1;jettySize=auto;html=1;exitX=1;exitY=0.5;exitDx=0;exitDy=0;entryX=0;entryY=0.5;entryDx=0;entryDy=0;endArrow=none;endFill=0;" parent="1" source="YPtFgZ8LJnQY6-V_tGsR-6" target="6p9KUuZENFY64v_fNxvY-30" edge="1">
          <mxGeometry relative="1" as="geometry">
            <Array as="points">
              <mxPoint x="1180" y="180" />
              <mxPoint x="1180" y="360" />
            </Array>
          </mxGeometry>
        </mxCell>
        <mxCell id="azv66595Vb5ihQFNeoaP-9" style="edgeStyle=orthogonalEdgeStyle;rounded=0;orthogonalLoop=1;jettySize=auto;html=1;exitX=1;exitY=0.5;exitDx=0;exitDy=0;entryX=0;entryY=0.5;entryDx=0;entryDy=0;endArrow=none;endFill=0;strokeWidth=1;" parent="1" source="YPtFgZ8LJnQY6-V_tGsR-6" target="6p9KUuZENFY64v_fNxvY-27" edge="1">
          <mxGeometry relative="1" as="geometry">
            <Array as="points">
              <mxPoint x="1180" y="180" />
              <mxPoint x="1180" y="240" />
            </Array>
          </mxGeometry>
        </mxCell>
        <mxCell id="e5_8AVl35VqmBAM99YCG-2" style="edgeStyle=orthogonalEdgeStyle;rounded=0;orthogonalLoop=1;jettySize=auto;html=1;exitX=0.5;exitY=1;exitDx=0;exitDy=0;entryX=1;entryY=0.5;entryDx=0;entryDy=0;endArrow=none;endFill=0;" parent="1" source="YPtFgZ8LJnQY6-V_tGsR-6" target="e5_8AVl35VqmBAM99YCG-1" edge="1">
          <mxGeometry relative="1" as="geometry" />
        </mxCell>
        <mxCell id="e5_8AVl35VqmBAM99YCG-6" style="edgeStyle=orthogonalEdgeStyle;rounded=0;orthogonalLoop=1;jettySize=auto;html=1;exitX=0.5;exitY=0;exitDx=0;exitDy=0;entryX=1;entryY=0.5;entryDx=0;entryDy=0;endArrow=none;endFill=0;" parent="1" source="YPtFgZ8LJnQY6-V_tGsR-6" target="e5_8AVl35VqmBAM99YCG-4" edge="1">
          <mxGeometry relative="1" as="geometry" />
        </mxCell>
        <mxCell id="e5_8AVl35VqmBAM99YCG-10" style="edgeStyle=orthogonalEdgeStyle;rounded=0;orthogonalLoop=1;jettySize=auto;html=1;exitX=0.75;exitY=1;exitDx=0;exitDy=0;entryX=0;entryY=0.5;entryDx=0;entryDy=0;endArrow=none;endFill=0;" parent="1" source="YPtFgZ8LJnQY6-V_tGsR-6" target="e5_8AVl35VqmBAM99YCG-7" edge="1">
          <mxGeometry relative="1" as="geometry" />
        </mxCell>
        <mxCell id="YPtFgZ8LJnQY6-V_tGsR-6" value="user" style="rounded=0;whiteSpace=wrap;html=1;" parent="1" vertex="1">
          <mxGeometry x="940" y="160" width="120" height="40" as="geometry" />
        </mxCell>
        <mxCell id="YPtFgZ8LJnQY6-V_tGsR-51" style="edgeStyle=orthogonalEdgeStyle;rounded=0;orthogonalLoop=1;jettySize=auto;html=1;exitX=0.25;exitY=0;exitDx=0;exitDy=0;entryX=1;entryY=0.5;entryDx=0;entryDy=0;startArrow=none;startFill=0;endArrow=none;endFill=0;strokeWidth=1;" parent="1" source="YPtFgZ8LJnQY6-V_tGsR-7" target="YPtFgZ8LJnQY6-V_tGsR-35" edge="1">
          <mxGeometry relative="1" as="geometry" />
        </mxCell>
        <mxCell id="lrEihr4bJ9vNrvf76rqn-3" style="edgeStyle=orthogonalEdgeStyle;rounded=0;orthogonalLoop=1;jettySize=auto;html=1;entryX=0.5;entryY=0;entryDx=0;entryDy=0;startArrow=none;startFill=0;endArrow=block;endFill=1;strokeWidth=1;exitX=0.25;exitY=1;exitDx=0;exitDy=0;" parent="1" source="YPtFgZ8LJnQY6-V_tGsR-7" target="lrEihr4bJ9vNrvf76rqn-2" edge="1">
          <mxGeometry relative="1" as="geometry">
            <mxPoint x="-70" y="340" as="sourcePoint" />
            <Array as="points">
              <mxPoint x="570" y="290" />
              <mxPoint x="60" y="290" />
            </Array>
          </mxGeometry>
        </mxCell>
        <mxCell id="lrEihr4bJ9vNrvf76rqn-18" style="edgeStyle=orthogonalEdgeStyle;rounded=0;orthogonalLoop=1;jettySize=auto;html=1;exitX=1;exitY=0.5;exitDx=0;exitDy=0;entryX=0;entryY=0.5;entryDx=0;entryDy=0;startArrow=none;startFill=0;endArrow=none;endFill=0;strokeWidth=1;" parent="1" source="YPtFgZ8LJnQY6-V_tGsR-7" target="lrEihr4bJ9vNrvf76rqn-17" edge="1">
          <mxGeometry relative="1" as="geometry">
            <Array as="points">
              <mxPoint x="660" y="190" />
              <mxPoint x="670" y="190" />
              <mxPoint x="670" y="110" />
            </Array>
          </mxGeometry>
        </mxCell>
        <mxCell id="lrEihr4bJ9vNrvf76rqn-24" style="edgeStyle=orthogonalEdgeStyle;rounded=0;orthogonalLoop=1;jettySize=auto;html=1;exitX=1;exitY=0.5;exitDx=0;exitDy=0;entryX=0;entryY=0.5;entryDx=0;entryDy=0;startArrow=none;startFill=0;endArrow=none;endFill=0;strokeWidth=1;" parent="1" source="YPtFgZ8LJnQY6-V_tGsR-7" target="lrEihr4bJ9vNrvf76rqn-23" edge="1">
          <mxGeometry relative="1" as="geometry">
            <Array as="points">
              <mxPoint x="660" y="190" />
              <mxPoint x="670" y="190" />
              <mxPoint x="670" y="152" />
              <mxPoint x="680" y="152" />
            </Array>
          </mxGeometry>
        </mxCell>
        <mxCell id="lrEihr4bJ9vNrvf76rqn-44" style="edgeStyle=orthogonalEdgeStyle;rounded=0;orthogonalLoop=1;jettySize=auto;html=1;exitX=1;exitY=0.5;exitDx=0;exitDy=0;startArrow=none;startFill=0;endArrow=none;endFill=0;strokeWidth=1;entryX=0;entryY=0.5;entryDx=0;entryDy=0;" parent="1" source="YPtFgZ8LJnQY6-V_tGsR-7" target="lrEihr4bJ9vNrvf76rqn-43" edge="1">
          <mxGeometry relative="1" as="geometry">
            <Array as="points">
              <mxPoint x="660" y="190" />
            </Array>
          </mxGeometry>
        </mxCell>
        <mxCell id="lrEihr4bJ9vNrvf76rqn-46" style="edgeStyle=orthogonalEdgeStyle;rounded=0;orthogonalLoop=1;jettySize=auto;html=1;exitX=1;exitY=0.5;exitDx=0;exitDy=0;entryX=0;entryY=0.5;entryDx=0;entryDy=0;startArrow=none;startFill=0;endArrow=none;endFill=0;strokeWidth=1;" parent="1" source="YPtFgZ8LJnQY6-V_tGsR-7" target="lrEihr4bJ9vNrvf76rqn-45" edge="1">
          <mxGeometry relative="1" as="geometry">
            <Array as="points">
              <mxPoint x="660" y="190" />
              <mxPoint x="670" y="190" />
              <mxPoint x="670" y="230" />
            </Array>
          </mxGeometry>
        </mxCell>
        <mxCell id="lrEihr4bJ9vNrvf76rqn-48" style="edgeStyle=orthogonalEdgeStyle;rounded=0;orthogonalLoop=1;jettySize=auto;html=1;entryX=0;entryY=0.5;entryDx=0;entryDy=0;startArrow=none;startFill=0;endArrow=none;endFill=0;strokeWidth=1;" parent="1" target="lrEihr4bJ9vNrvf76rqn-47" edge="1">
          <mxGeometry relative="1" as="geometry">
            <mxPoint x="660" y="190" as="sourcePoint" />
            <Array as="points">
              <mxPoint x="670" y="190" />
              <mxPoint x="670" y="270" />
            </Array>
          </mxGeometry>
        </mxCell>
        <mxCell id="e5_8AVl35VqmBAM99YCG-3" style="edgeStyle=orthogonalEdgeStyle;rounded=0;orthogonalLoop=1;jettySize=auto;html=1;exitX=0.75;exitY=1;exitDx=0;exitDy=0;entryX=0;entryY=0.5;entryDx=0;entryDy=0;endArrow=none;endFill=0;" parent="1" source="YPtFgZ8LJnQY6-V_tGsR-7" target="e5_8AVl35VqmBAM99YCG-1" edge="1">
          <mxGeometry relative="1" as="geometry" />
        </mxCell>
        <mxCell id="e5_8AVl35VqmBAM99YCG-5" style="edgeStyle=orthogonalEdgeStyle;rounded=0;orthogonalLoop=1;jettySize=auto;html=1;exitX=0.75;exitY=0;exitDx=0;exitDy=0;entryX=0;entryY=0.5;entryDx=0;entryDy=0;endArrow=none;endFill=0;" parent="1" source="YPtFgZ8LJnQY6-V_tGsR-7" target="e5_8AVl35VqmBAM99YCG-4" edge="1">
          <mxGeometry relative="1" as="geometry" />
        </mxCell>
        <mxCell id="YPtFgZ8LJnQY6-V_tGsR-7" value="business" style="rounded=0;whiteSpace=wrap;html=1;" parent="1" vertex="1">
          <mxGeometry x="540" y="171.16" width="120" height="40" as="geometry" />
        </mxCell>
        <mxCell id="YPtFgZ8LJnQY6-V_tGsR-8" value="city" style="rounded=0;whiteSpace=wrap;html=1;" parent="1" vertex="1">
          <mxGeometry x="-220" y="171.16" width="120" height="40" as="geometry" />
        </mxCell>
        <mxCell id="6p9KUuZENFY64v_fNxvY-208" style="edgeStyle=orthogonalEdgeStyle;rounded=0;orthogonalLoop=1;jettySize=auto;html=1;exitX=0.5;exitY=0;exitDx=0;exitDy=0;entryX=0.5;entryY=1;entryDx=0;entryDy=0;endArrow=none;endFill=0;fontSize=10;" parent="1" source="YPtFgZ8LJnQY6-V_tGsR-9" target="6p9KUuZENFY64v_fNxvY-207" edge="1">
          <mxGeometry relative="1" as="geometry">
            <Array as="points">
              <mxPoint x="590" y="649.88" />
              <mxPoint x="590" y="649.88" />
            </Array>
          </mxGeometry>
        </mxCell>
        <mxCell id="YPtFgZ8LJnQY6-V_tGsR-9" value="noise_level" style="rounded=0;whiteSpace=wrap;html=1;" parent="1" vertex="1">
          <mxGeometry x="530" y="659.88" width="120" height="40" as="geometry" />
        </mxCell>
        <mxCell id="YPtFgZ8LJnQY6-V_tGsR-39" style="edgeStyle=orthogonalEdgeStyle;rounded=0;orthogonalLoop=1;jettySize=auto;html=1;exitX=0.5;exitY=0;exitDx=0;exitDy=0;entryX=0.5;entryY=1;entryDx=0;entryDy=0;startArrow=none;startFill=0;endArrow=block;endFill=1;strokeWidth=2;" parent="1" source="YPtFgZ8LJnQY6-V_tGsR-10" target="lrEihr4bJ9vNrvf76rqn-6" edge="1">
          <mxGeometry relative="1" as="geometry">
            <Array as="points">
              <mxPoint x="280" y="510" />
              <mxPoint x="280" y="510" />
            </Array>
            <mxPoint x="180.3800000000001" y="450.2399999999998" as="targetPoint" />
          </mxGeometry>
        </mxCell>
        <mxCell id="YPtFgZ8LJnQY6-V_tGsR-10" value="business parking" style="rounded=0;whiteSpace=wrap;html=1;strokeWidth=2;" parent="1" vertex="1">
          <mxGeometry x="220" y="540" width="120" height="40" as="geometry" />
        </mxCell>
        <mxCell id="YPtFgZ8LJnQY6-V_tGsR-43" style="edgeStyle=orthogonalEdgeStyle;rounded=0;orthogonalLoop=1;jettySize=auto;html=1;exitX=0.5;exitY=0;exitDx=0;exitDy=0;startArrow=none;startFill=0;endArrow=block;endFill=1;strokeWidth=2;entryX=0.5;entryY=1;entryDx=0;entryDy=0;" parent="1" source="YPtFgZ8LJnQY6-V_tGsR-11" target="lrEihr4bJ9vNrvf76rqn-1" edge="1">
          <mxGeometry relative="1" as="geometry">
            <mxPoint x="-10" y="380" as="targetPoint" />
            <Array as="points" />
          </mxGeometry>
        </mxCell>
        <mxCell id="YPtFgZ8LJnQY6-V_tGsR-11" value="music" style="rounded=0;whiteSpace=wrap;html=1;gradientColor=none;strokeWidth=2;" parent="1" vertex="1">
          <mxGeometry x="-120" y="490" width="120" height="40" as="geometry" />
        </mxCell>
        <mxCell id="YPtFgZ8LJnQY6-V_tGsR-44" style="edgeStyle=orthogonalEdgeStyle;rounded=0;orthogonalLoop=1;jettySize=auto;html=1;exitX=0.5;exitY=0;exitDx=0;exitDy=0;startArrow=none;startFill=0;endArrow=block;endFill=1;strokeWidth=2;entryX=0.5;entryY=1;entryDx=0;entryDy=0;" parent="1" source="YPtFgZ8LJnQY6-V_tGsR-12" target="lrEihr4bJ9vNrvf76rqn-2" edge="1">
          <mxGeometry relative="1" as="geometry">
            <mxPoint x="60" y="450" as="targetPoint" />
            <Array as="points">
              <mxPoint x="60" y="510" />
              <mxPoint x="60" y="510" />
            </Array>
          </mxGeometry>
        </mxCell>
        <mxCell id="YPtFgZ8LJnQY6-V_tGsR-12" value="ambiance" style="rounded=0;whiteSpace=wrap;html=1;strokeWidth=2;" parent="1" vertex="1">
          <mxGeometry y="550" width="120" height="40" as="geometry" />
        </mxCell>
        <mxCell id="YPtFgZ8LJnQY6-V_tGsR-13" value="&lt;div&gt;good for meal&lt;/div&gt;" style="rounded=0;whiteSpace=wrap;html=1;strokeWidth=2;" parent="1" vertex="1">
          <mxGeometry x="110" y="490" width="120" height="40" as="geometry" />
        </mxCell>
        <mxCell id="c20AXmqo6lOxg8rbnFz8-9" style="edgeStyle=orthogonalEdgeStyle;rounded=0;orthogonalLoop=1;jettySize=auto;html=1;exitX=0.5;exitY=0;exitDx=0;exitDy=0;entryX=0.5;entryY=1;entryDx=0;entryDy=0;endArrow=classic;endFill=1;strokeWidth=2;" edge="1" parent="1" source="YPtFgZ8LJnQY6-V_tGsR-14" target="lrEihr4bJ9vNrvf76rqn-7">
          <mxGeometry relative="1" as="geometry" />
        </mxCell>
        <mxCell id="YPtFgZ8LJnQY6-V_tGsR-14" value="dietary restrictions" style="rounded=0;whiteSpace=wrap;html=1;strokeWidth=2;" parent="1" vertex="1">
          <mxGeometry x="425.01" y="420" width="120" height="40" as="geometry" />
        </mxCell>
        <mxCell id="cfK3BOpUZNMTCfiEexGw-10" value="" style="edgeStyle=orthogonalEdgeStyle;rounded=0;orthogonalLoop=1;jettySize=auto;html=1;endArrow=none;endFill=0;" parent="1" source="YPtFgZ8LJnQY6-V_tGsR-16" target="cfK3BOpUZNMTCfiEexGw-4" edge="1">
          <mxGeometry relative="1" as="geometry" />
        </mxCell>
        <mxCell id="YPtFgZ8LJnQY6-V_tGsR-16" value="is_located_in" style="rhombus;whiteSpace=wrap;html=1;" parent="1" vertex="1">
          <mxGeometry x="320" y="151.16" width="120" height="80" as="geometry" />
        </mxCell>
        <mxCell id="YPtFgZ8LJnQY6-V_tGsR-33" style="edgeStyle=orthogonalEdgeStyle;rounded=0;orthogonalLoop=1;jettySize=auto;html=1;startArrow=block;startFill=1;endArrow=none;endFill=0;strokeWidth=2;exitX=1;exitY=0.5;exitDx=0;exitDy=0;entryX=0;entryY=0.5;entryDx=0;entryDy=0;" parent="1" source="YPtFgZ8LJnQY6-V_tGsR-16" target="YPtFgZ8LJnQY6-V_tGsR-7" edge="1">
          <mxGeometry relative="1" as="geometry">
            <mxPoint x="500" y="287.44" as="sourcePoint" />
            <mxPoint x="500" y="327.44" as="targetPoint" />
          </mxGeometry>
        </mxCell>
        <mxCell id="YPtFgZ8LJnQY6-V_tGsR-35" value="defined_by" style="rhombus;whiteSpace=wrap;html=1;" parent="1" vertex="1">
          <mxGeometry x="380" y="14.759999999999991" width="120" height="80" as="geometry" />
        </mxCell>
        <mxCell id="YPtFgZ8LJnQY6-V_tGsR-42" style="edgeStyle=orthogonalEdgeStyle;rounded=0;orthogonalLoop=1;jettySize=auto;html=1;exitX=0.5;exitY=1;exitDx=0;exitDy=0;startArrow=block;startFill=1;endArrow=none;endFill=0;strokeWidth=2;entryX=0.5;entryY=0;entryDx=0;entryDy=0;" parent="1" source="lrEihr4bJ9vNrvf76rqn-4" target="YPtFgZ8LJnQY6-V_tGsR-13" edge="1">
          <mxGeometry relative="1" as="geometry">
            <Array as="points">
              <mxPoint x="170" y="460" />
              <mxPoint x="170" y="460" />
            </Array>
            <mxPoint x="170" y="450" as="sourcePoint" />
            <mxPoint x="124" y="490" as="targetPoint" />
          </mxGeometry>
        </mxCell>
        <mxCell id="YPtFgZ8LJnQY6-V_tGsR-45" style="edgeStyle=orthogonalEdgeStyle;rounded=0;orthogonalLoop=1;jettySize=auto;html=1;entryX=0.25;entryY=1;entryDx=0;entryDy=0;startArrow=block;startFill=1;endArrow=none;endFill=0;strokeWidth=1;exitX=0.5;exitY=0;exitDx=0;exitDy=0;" parent="1" source="lrEihr4bJ9vNrvf76rqn-1" target="YPtFgZ8LJnQY6-V_tGsR-7" edge="1">
          <mxGeometry relative="1" as="geometry">
            <Array as="points">
              <mxPoint x="-60" y="290" />
              <mxPoint x="570" y="290" />
            </Array>
            <mxPoint x="140" y="287.44" as="sourcePoint" />
          </mxGeometry>
        </mxCell>
        <mxCell id="6p9KUuZENFY64v_fNxvY-57" style="edgeStyle=orthogonalEdgeStyle;rounded=0;orthogonalLoop=1;jettySize=auto;html=1;exitX=1;exitY=0.5;exitDx=0;exitDy=0;endArrow=none;endFill=0;entryX=0.25;entryY=0;entryDx=0;entryDy=0;" parent="1" edge="1">
          <mxGeometry relative="1" as="geometry">
            <mxPoint x="829" y="14.759999999999884" as="targetPoint" />
            <mxPoint x="800.0000000000041" y="-20.23999999999989" as="sourcePoint" />
          </mxGeometry>
        </mxCell>
        <mxCell id="6p9KUuZENFY64v_fNxvY-1" value="id" style="ellipse;whiteSpace=wrap;html=1;fontStyle=0;fontSize=10;" parent="1" vertex="1">
          <mxGeometry x="729" y="-35.24" width="70" height="30" as="geometry" />
        </mxCell>
        <mxCell id="6p9KUuZENFY64v_fNxvY-58" style="edgeStyle=orthogonalEdgeStyle;rounded=0;orthogonalLoop=1;jettySize=auto;html=1;exitX=1;exitY=0.5;exitDx=0;exitDy=0;endArrow=none;endFill=0;entryX=0.25;entryY=0;entryDx=0;entryDy=0;" parent="1" edge="1">
          <mxGeometry relative="1" as="geometry">
            <mxPoint x="829" y="14.759999999999884" as="targetPoint" />
            <mxPoint x="800.0000000000041" y="-60.23999999999989" as="sourcePoint" />
          </mxGeometry>
        </mxCell>
        <mxCell id="6p9KUuZENFY64v_fNxvY-8" value="date" style="ellipse;whiteSpace=wrap;html=1;fontSize=10;" parent="1" vertex="1">
          <mxGeometry x="729" y="-75.24000000000001" width="70" height="30" as="geometry" />
        </mxCell>
        <mxCell id="6p9KUuZENFY64v_fNxvY-60" style="edgeStyle=orthogonalEdgeStyle;rounded=0;orthogonalLoop=1;jettySize=auto;html=1;exitX=1;exitY=0.5;exitDx=0;exitDy=0;entryX=0.25;entryY=0;entryDx=0;entryDy=0;endArrow=none;endFill=0;" parent="1" edge="1">
          <mxGeometry relative="1" as="geometry">
            <mxPoint x="829" y="14.759999999999884" as="targetPoint" />
            <mxPoint x="800.0000000000041" y="-100.2399999999999" as="sourcePoint" />
          </mxGeometry>
        </mxCell>
        <mxCell id="6p9KUuZENFY64v_fNxvY-9" value="&lt;div style=&quot;font-size: 10px;&quot;&gt;text&lt;/div&gt;" style="ellipse;whiteSpace=wrap;html=1;fontSize=10;" parent="1" vertex="1">
          <mxGeometry x="729" y="-115.24000000000001" width="70" height="30" as="geometry" />
        </mxCell>
        <mxCell id="6p9KUuZENFY64v_fNxvY-61" style="edgeStyle=orthogonalEdgeStyle;rounded=0;orthogonalLoop=1;jettySize=auto;html=1;exitX=0;exitY=0.5;exitDx=0;exitDy=0;endArrow=none;endFill=0;" parent="1" edge="1">
          <mxGeometry relative="1" as="geometry">
            <mxPoint x="829" y="14.760000000000002" as="targetPoint" />
            <Array as="points">
              <mxPoint x="829" y="-100.24000000000001" />
            </Array>
            <mxPoint x="860.0000000000023" y="-100.2399999999999" as="sourcePoint" />
          </mxGeometry>
        </mxCell>
        <mxCell id="6p9KUuZENFY64v_fNxvY-10" value="cool" style="ellipse;whiteSpace=wrap;html=1;fontSize=10;" parent="1" vertex="1">
          <mxGeometry x="859" y="-115.24000000000001" width="70" height="30" as="geometry" />
        </mxCell>
        <mxCell id="6p9KUuZENFY64v_fNxvY-62" style="edgeStyle=orthogonalEdgeStyle;rounded=0;orthogonalLoop=1;jettySize=auto;html=1;exitX=0;exitY=0.5;exitDx=0;exitDy=0;endArrow=none;endFill=0;" parent="1" edge="1">
          <mxGeometry relative="1" as="geometry">
            <Array as="points">
              <mxPoint x="829" y="-60.24" />
            </Array>
            <mxPoint x="829" y="14.760000000000002" as="targetPoint" />
            <mxPoint x="860.0000000000023" y="-60.23999999999989" as="sourcePoint" />
          </mxGeometry>
        </mxCell>
        <mxCell id="6p9KUuZENFY64v_fNxvY-11" value="funny" style="ellipse;whiteSpace=wrap;html=1;fontSize=10;" parent="1" vertex="1">
          <mxGeometry x="859" y="-75.24000000000001" width="70" height="30" as="geometry" />
        </mxCell>
        <mxCell id="6p9KUuZENFY64v_fNxvY-63" style="edgeStyle=orthogonalEdgeStyle;rounded=0;orthogonalLoop=1;jettySize=auto;html=1;exitX=0;exitY=0.5;exitDx=0;exitDy=0;endArrow=none;endFill=0;" parent="1" edge="1">
          <mxGeometry relative="1" as="geometry">
            <Array as="points">
              <mxPoint x="829" y="-20.239999999999995" />
            </Array>
            <mxPoint x="829" y="14.760000000000002" as="targetPoint" />
            <mxPoint x="860.0000000000023" y="-20.23999999999989" as="sourcePoint" />
          </mxGeometry>
        </mxCell>
        <mxCell id="6p9KUuZENFY64v_fNxvY-12" value="stars" style="ellipse;whiteSpace=wrap;html=1;fontSize=10;" parent="1" vertex="1">
          <mxGeometry x="859" y="-35.24" width="70" height="30" as="geometry" />
        </mxCell>
        <mxCell id="6p9KUuZENFY64v_fNxvY-59" style="edgeStyle=orthogonalEdgeStyle;rounded=0;orthogonalLoop=1;jettySize=auto;html=1;exitX=0.5;exitY=1;exitDx=0;exitDy=0;endArrow=none;endFill=0;entryX=0.5;entryY=0;entryDx=0;entryDy=0;" parent="1" edge="1">
          <mxGeometry relative="1" as="geometry">
            <mxPoint x="829" y="14.759999999999884" as="targetPoint" />
            <mxPoint x="829" y="-115.2399999999999" as="sourcePoint" />
            <Array as="points">
              <mxPoint x="829" y="9.880000000000003" />
              <mxPoint x="829" y="9.880000000000003" />
            </Array>
          </mxGeometry>
        </mxCell>
        <mxCell id="6p9KUuZENFY64v_fNxvY-13" value="useful" style="ellipse;whiteSpace=wrap;html=1;fontSize=10;" parent="1" vertex="1">
          <mxGeometry x="793" y="-145.24" width="70" height="30" as="geometry" />
        </mxCell>
        <mxCell id="6p9KUuZENFY64v_fNxvY-74" style="edgeStyle=orthogonalEdgeStyle;rounded=0;orthogonalLoop=1;jettySize=auto;html=1;exitX=0;exitY=0.5;exitDx=0;exitDy=0;endArrow=none;endFill=0;entryX=1;entryY=0.5;entryDx=0;entryDy=0;fontSize=9;" parent="1" source="6p9KUuZENFY64v_fNxvY-14" target="YPtFgZ8LJnQY6-V_tGsR-6" edge="1">
          <mxGeometry relative="1" as="geometry">
            <mxPoint x="979.689655172414" y="180.00000000000023" as="targetPoint" />
            <Array as="points">
              <mxPoint x="1070" y="40" />
              <mxPoint x="1070" y="180" />
            </Array>
          </mxGeometry>
        </mxCell>
        <mxCell id="6p9KUuZENFY64v_fNxvY-14" value="id" style="ellipse;whiteSpace=wrap;html=1;fontStyle=4;fontSize=10;" parent="1" vertex="1">
          <mxGeometry x="1080" y="24.880000000000003" width="92" height="30" as="geometry" />
        </mxCell>
        <mxCell id="6p9KUuZENFY64v_fNxvY-72" style="edgeStyle=orthogonalEdgeStyle;rounded=0;orthogonalLoop=1;jettySize=auto;html=1;exitX=0;exitY=0.5;exitDx=0;exitDy=0;entryX=1;entryY=0.5;entryDx=0;entryDy=0;endArrow=none;endFill=0;fontSize=9;" parent="1" source="6p9KUuZENFY64v_fNxvY-18" target="YPtFgZ8LJnQY6-V_tGsR-6" edge="1">
          <mxGeometry relative="1" as="geometry">
            <Array as="points">
              <mxPoint x="1070" y="80" />
              <mxPoint x="1070" y="180" />
            </Array>
          </mxGeometry>
        </mxCell>
        <mxCell id="6p9KUuZENFY64v_fNxvY-18" value="name" style="ellipse;whiteSpace=wrap;html=1;fontSize=10;" parent="1" vertex="1">
          <mxGeometry x="1080" y="64.88" width="92" height="30" as="geometry" />
        </mxCell>
        <mxCell id="6p9KUuZENFY64v_fNxvY-75" style="edgeStyle=orthogonalEdgeStyle;rounded=0;orthogonalLoop=1;jettySize=auto;html=1;exitX=0;exitY=0.5;exitDx=0;exitDy=0;entryX=1;entryY=0.5;entryDx=0;entryDy=0;endArrow=none;endFill=0;fontSize=9;" parent="1" source="6p9KUuZENFY64v_fNxvY-19" target="YPtFgZ8LJnQY6-V_tGsR-6" edge="1">
          <mxGeometry relative="1" as="geometry">
            <Array as="points">
              <mxPoint x="1070" y="160" />
              <mxPoint x="1070" y="180" />
            </Array>
          </mxGeometry>
        </mxCell>
        <mxCell id="6p9KUuZENFY64v_fNxvY-19" value="yelping_since" style="ellipse;whiteSpace=wrap;html=1;fontSize=10;" parent="1" vertex="1">
          <mxGeometry x="1080" y="144.88" width="92" height="30" as="geometry" />
        </mxCell>
        <mxCell id="6p9KUuZENFY64v_fNxvY-20" value="compliment_count" style="ellipse;whiteSpace=wrap;html=1;fontSize=10;" parent="1" vertex="1">
          <mxGeometry x="1190" y="-55" width="110" height="30" as="geometry" />
        </mxCell>
        <mxCell id="6p9KUuZENFY64v_fNxvY-21" value="compliment_cool" style="ellipse;whiteSpace=wrap;html=1;fontSize=10;" parent="1" vertex="1">
          <mxGeometry x="1190" y="-15.120000000000001" width="110" height="30" as="geometry" />
        </mxCell>
        <mxCell id="6p9KUuZENFY64v_fNxvY-22" value="compliment_cute" style="ellipse;whiteSpace=wrap;html=1;fontSize=10;" parent="1" vertex="1">
          <mxGeometry x="1190" y="24.880000000000003" width="110" height="30" as="geometry" />
        </mxCell>
        <mxCell id="6p9KUuZENFY64v_fNxvY-23" value="compliment_funny" style="ellipse;whiteSpace=wrap;html=1;fontSize=10;" parent="1" vertex="1">
          <mxGeometry x="1190" y="64.88" width="110" height="30" as="geometry" />
        </mxCell>
        <mxCell id="6p9KUuZENFY64v_fNxvY-24" value="compliment_hot" style="ellipse;whiteSpace=wrap;html=1;fontSize=10;" parent="1" vertex="1">
          <mxGeometry x="1190" y="104.88" width="110" height="30" as="geometry" />
        </mxCell>
        <mxCell id="6p9KUuZENFY64v_fNxvY-25" value="compliment_list" style="ellipse;whiteSpace=wrap;html=1;fontSize=10;" parent="1" vertex="1">
          <mxGeometry x="1190" y="144.88" width="110" height="30" as="geometry" />
        </mxCell>
        <mxCell id="6p9KUuZENFY64v_fNxvY-26" value="compliment_more" style="ellipse;whiteSpace=wrap;html=1;fontSize=10;" parent="1" vertex="1">
          <mxGeometry x="1190" y="184.88" width="110" height="30" as="geometry" />
        </mxCell>
        <mxCell id="6p9KUuZENFY64v_fNxvY-27" value="compliment_note" style="ellipse;whiteSpace=wrap;html=1;fontSize=10;" parent="1" vertex="1">
          <mxGeometry x="1190" y="224.88" width="110" height="30" as="geometry" />
        </mxCell>
        <mxCell id="6p9KUuZENFY64v_fNxvY-28" value="compliment_photos" style="ellipse;whiteSpace=wrap;html=1;fontSize=10;" parent="1" vertex="1">
          <mxGeometry x="1190" y="264.88" width="110" height="30" as="geometry" />
        </mxCell>
        <mxCell id="6p9KUuZENFY64v_fNxvY-29" value="compliment_plain" style="ellipse;whiteSpace=wrap;html=1;fontSize=10;" parent="1" vertex="1">
          <mxGeometry x="1190" y="304.88" width="110" height="30" as="geometry" />
        </mxCell>
        <mxCell id="6p9KUuZENFY64v_fNxvY-30" value="compliment_profile" style="ellipse;whiteSpace=wrap;html=1;fontSize=10;" parent="1" vertex="1">
          <mxGeometry x="1190" y="345" width="110" height="30" as="geometry" />
        </mxCell>
        <mxCell id="6p9KUuZENFY64v_fNxvY-31" value="compliment_writer" style="ellipse;whiteSpace=wrap;html=1;fontSize=10;" parent="1" vertex="1">
          <mxGeometry x="1190" y="385" width="110" height="30" as="geometry" />
        </mxCell>
        <mxCell id="6p9KUuZENFY64v_fNxvY-70" style="edgeStyle=orthogonalEdgeStyle;rounded=0;orthogonalLoop=1;jettySize=auto;html=1;exitX=0;exitY=0.5;exitDx=0;exitDy=0;entryX=1;entryY=0.5;entryDx=0;entryDy=0;endArrow=none;endFill=0;fontSize=9;" parent="1" source="6p9KUuZENFY64v_fNxvY-34" target="YPtFgZ8LJnQY6-V_tGsR-6" edge="1">
          <mxGeometry relative="1" as="geometry">
            <Array as="points">
              <mxPoint x="1070" y="320" />
              <mxPoint x="1070" y="180" />
            </Array>
          </mxGeometry>
        </mxCell>
        <mxCell id="6p9KUuZENFY64v_fNxvY-71" style="edgeStyle=orthogonalEdgeStyle;rounded=0;orthogonalLoop=1;jettySize=auto;html=1;exitX=0;exitY=0.5;exitDx=0;exitDy=0;entryX=1;entryY=0.5;entryDx=0;entryDy=0;endArrow=none;endFill=0;fontSize=9;" parent="1" source="6p9KUuZENFY64v_fNxvY-35" target="YPtFgZ8LJnQY6-V_tGsR-6" edge="1">
          <mxGeometry relative="1" as="geometry">
            <Array as="points">
              <mxPoint x="1070" y="360" />
              <mxPoint x="1070" y="180" />
            </Array>
          </mxGeometry>
        </mxCell>
        <mxCell id="6p9KUuZENFY64v_fNxvY-69" style="edgeStyle=orthogonalEdgeStyle;rounded=0;orthogonalLoop=1;jettySize=auto;html=1;exitX=0;exitY=0.5;exitDx=0;exitDy=0;entryX=1;entryY=0.5;entryDx=0;entryDy=0;endArrow=none;endFill=0;fontSize=9;" parent="1" source="6p9KUuZENFY64v_fNxvY-37" target="YPtFgZ8LJnQY6-V_tGsR-6" edge="1">
          <mxGeometry relative="1" as="geometry">
            <Array as="points">
              <mxPoint x="1070" y="280" />
              <mxPoint x="1070" y="180" />
            </Array>
          </mxGeometry>
        </mxCell>
        <mxCell id="6p9KUuZENFY64v_fNxvY-37" value="average_stars" style="ellipse;whiteSpace=wrap;html=1;fontSize=10;" parent="1" vertex="1">
          <mxGeometry x="1080" y="264.88" width="92" height="30" as="geometry" />
        </mxCell>
        <mxCell id="6p9KUuZENFY64v_fNxvY-68" style="edgeStyle=orthogonalEdgeStyle;rounded=0;orthogonalLoop=1;jettySize=auto;html=1;exitX=0;exitY=0.5;exitDx=0;exitDy=0;endArrow=none;endFill=0;entryX=1;entryY=0.5;entryDx=0;entryDy=0;fontSize=9;" parent="1" source="6p9KUuZENFY64v_fNxvY-38" target="YPtFgZ8LJnQY6-V_tGsR-6" edge="1">
          <mxGeometry relative="1" as="geometry">
            <mxPoint x="1020" y="170" as="targetPoint" />
            <Array as="points">
              <mxPoint x="1070" y="240" />
              <mxPoint x="1070" y="180" />
            </Array>
          </mxGeometry>
        </mxCell>
        <mxCell id="6p9KUuZENFY64v_fNxvY-42" style="edgeStyle=orthogonalEdgeStyle;rounded=0;orthogonalLoop=1;jettySize=auto;html=1;exitX=0.5;exitY=1;exitDx=0;exitDy=0;entryX=0.5;entryY=0;entryDx=0;entryDy=0;endArrow=none;endFill=0;" parent="1" source="6p9KUuZENFY64v_fNxvY-40" target="YPtFgZ8LJnQY6-V_tGsR-2" edge="1">
          <mxGeometry relative="1" as="geometry">
            <Array as="points">
              <mxPoint x="-525" y="150" />
              <mxPoint x="-480" y="150" />
            </Array>
          </mxGeometry>
        </mxCell>
        <mxCell id="6p9KUuZENFY64v_fNxvY-40" value="id" style="ellipse;whiteSpace=wrap;html=1;fontStyle=4;fontSize=10;" parent="1" vertex="1">
          <mxGeometry x="-560" y="100.00000000000001" width="70" height="30" as="geometry" />
        </mxCell>
        <mxCell id="6p9KUuZENFY64v_fNxvY-52" style="edgeStyle=orthogonalEdgeStyle;rounded=0;orthogonalLoop=1;jettySize=auto;html=1;exitX=0.5;exitY=1;exitDx=0;exitDy=0;entryX=0.5;entryY=0;entryDx=0;entryDy=0;endArrow=none;endFill=0;" parent="1" source="6p9KUuZENFY64v_fNxvY-45" target="YPtFgZ8LJnQY6-V_tGsR-8" edge="1">
          <mxGeometry relative="1" as="geometry">
            <Array as="points">
              <mxPoint x="-201" y="150" />
              <mxPoint x="-160" y="150" />
            </Array>
          </mxGeometry>
        </mxCell>
        <mxCell id="6p9KUuZENFY64v_fNxvY-45" value="id" style="ellipse;whiteSpace=wrap;html=1;fontStyle=4;fontSize=10;" parent="1" vertex="1">
          <mxGeometry x="-240" y="100" width="69" height="30" as="geometry" />
        </mxCell>
        <mxCell id="6p9KUuZENFY64v_fNxvY-46" value="name" style="ellipse;whiteSpace=wrap;html=1;fontStyle=0;fontSize=10;" parent="1" vertex="1">
          <mxGeometry x="-470" y="100.00000000000001" width="70" height="30" as="geometry" />
        </mxCell>
        <mxCell id="6p9KUuZENFY64v_fNxvY-47" value="name" style="ellipse;whiteSpace=wrap;html=1;fontStyle=0;fontSize=10;" parent="1" vertex="1">
          <mxGeometry x="-152" y="100" width="72" height="30" as="geometry" />
        </mxCell>
        <mxCell id="6p9KUuZENFY64v_fNxvY-64" style="edgeStyle=orthogonalEdgeStyle;rounded=0;orthogonalLoop=1;jettySize=auto;html=1;exitX=0.5;exitY=1;exitDx=0;exitDy=0;entryX=0.5;entryY=0;entryDx=0;entryDy=0;endArrow=none;endFill=0;" parent="1" source="6p9KUuZENFY64v_fNxvY-47" target="YPtFgZ8LJnQY6-V_tGsR-8" edge="1">
          <mxGeometry relative="1" as="geometry">
            <mxPoint x="-65" y="147.44000000000023" as="sourcePoint" />
            <mxPoint x="-100" y="167.44000000000023" as="targetPoint" />
            <Array as="points">
              <mxPoint x="-160" y="150" />
            </Array>
          </mxGeometry>
        </mxCell>
        <mxCell id="6p9KUuZENFY64v_fNxvY-94" value="id" style="ellipse;whiteSpace=wrap;html=1;fontSize=10;fontStyle=0" parent="1" vertex="1">
          <mxGeometry x="699" y="369.94" width="100" height="30" as="geometry" />
        </mxCell>
        <mxCell id="6p9KUuZENFY64v_fNxvY-97" value="date" style="ellipse;whiteSpace=wrap;html=1;fontSize=10;fontStyle=0" parent="1" vertex="1">
          <mxGeometry x="859" y="369.94" width="100" height="30" as="geometry" />
        </mxCell>
        <mxCell id="6p9KUuZENFY64v_fNxvY-104" style="edgeStyle=orthogonalEdgeStyle;rounded=0;orthogonalLoop=1;jettySize=auto;html=1;exitX=0;exitY=0.5;exitDx=0;exitDy=0;entryX=0.5;entryY=1;entryDx=0;entryDy=0;endArrow=none;endFill=0;fontSize=10;" parent="1" source="6p9KUuZENFY64v_fNxvY-98" edge="1">
          <mxGeometry relative="1" as="geometry">
            <mxPoint x="828" y="349.94" as="targetPoint" />
          </mxGeometry>
        </mxCell>
        <mxCell id="6p9KUuZENFY64v_fNxvY-98" value="text" style="ellipse;whiteSpace=wrap;html=1;fontSize=10;fontStyle=0" parent="1" vertex="1">
          <mxGeometry x="859" y="409.94" width="100" height="30" as="geometry" />
        </mxCell>
        <mxCell id="6p9KUuZENFY64v_fNxvY-105" style="edgeStyle=orthogonalEdgeStyle;rounded=0;orthogonalLoop=1;jettySize=auto;html=1;exitX=1;exitY=0.5;exitDx=0;exitDy=0;entryX=0.5;entryY=1;entryDx=0;entryDy=0;endArrow=none;endFill=0;fontSize=10;" parent="1" source="6p9KUuZENFY64v_fNxvY-99" edge="1">
          <mxGeometry relative="1" as="geometry">
            <mxPoint x="828" y="349.94" as="targetPoint" />
          </mxGeometry>
        </mxCell>
        <mxCell id="6p9KUuZENFY64v_fNxvY-99" value="compliment_count" style="ellipse;whiteSpace=wrap;html=1;fontSize=10;fontStyle=0" parent="1" vertex="1">
          <mxGeometry x="699" y="409.94" width="100" height="30" as="geometry" />
        </mxCell>
        <mxCell id="6p9KUuZENFY64v_fNxvY-103" style="edgeStyle=orthogonalEdgeStyle;rounded=0;orthogonalLoop=1;jettySize=auto;html=1;exitX=0;exitY=0.5;exitDx=0;exitDy=0;endArrow=none;endFill=0;fontSize=10;entryX=0.5;entryY=1;entryDx=0;entryDy=0;" parent="1" source="6p9KUuZENFY64v_fNxvY-97" target="e5_8AVl35VqmBAM99YCG-1" edge="1">
          <mxGeometry relative="1" as="geometry">
            <mxPoint x="828" y="349.94" as="targetPoint" />
          </mxGeometry>
        </mxCell>
        <mxCell id="6p9KUuZENFY64v_fNxvY-114" style="edgeStyle=orthogonalEdgeStyle;rounded=0;orthogonalLoop=1;jettySize=auto;html=1;exitX=1;exitY=0.5;exitDx=0;exitDy=0;entryX=0.5;entryY=1;entryDx=0;entryDy=0;endArrow=none;endFill=0;fontSize=10;" parent="1" source="6p9KUuZENFY64v_fNxvY-106" target="YPtFgZ8LJnQY6-V_tGsR-11" edge="1">
          <mxGeometry relative="1" as="geometry">
            <Array as="points">
              <mxPoint x="-120" y="565" />
              <mxPoint x="-120" y="540" />
              <mxPoint x="-60" y="540" />
            </Array>
          </mxGeometry>
        </mxCell>
        <mxCell id="6p9KUuZENFY64v_fNxvY-106" value="dj" style="ellipse;whiteSpace=wrap;html=1;fontStyle=0;fontSize=10;" parent="1" vertex="1">
          <mxGeometry x="-110" y="550" width="100" height="30" as="geometry" />
        </mxCell>
        <mxCell id="6p9KUuZENFY64v_fNxvY-115" style="edgeStyle=orthogonalEdgeStyle;rounded=0;orthogonalLoop=1;jettySize=auto;html=1;exitX=0;exitY=0.5;exitDx=0;exitDy=0;entryX=0.5;entryY=1;entryDx=0;entryDy=0;endArrow=none;endFill=0;fontSize=10;" parent="1" source="6p9KUuZENFY64v_fNxvY-108" target="YPtFgZ8LJnQY6-V_tGsR-11" edge="1">
          <mxGeometry relative="1" as="geometry">
            <Array as="points">
              <mxPoint x="-120" y="605" />
              <mxPoint x="-120" y="540" />
              <mxPoint x="-60" y="540" />
            </Array>
          </mxGeometry>
        </mxCell>
        <mxCell id="6p9KUuZENFY64v_fNxvY-108" value="background_music" style="ellipse;whiteSpace=wrap;html=1;fontStyle=0;fontSize=10;" parent="1" vertex="1">
          <mxGeometry x="-110" y="590" width="100" height="30" as="geometry" />
        </mxCell>
        <mxCell id="6p9KUuZENFY64v_fNxvY-116" style="edgeStyle=orthogonalEdgeStyle;rounded=0;orthogonalLoop=1;jettySize=auto;html=1;exitX=0;exitY=0.5;exitDx=0;exitDy=0;endArrow=none;endFill=0;fontSize=10;entryX=0.5;entryY=1;entryDx=0;entryDy=0;" parent="1" source="6p9KUuZENFY64v_fNxvY-109" target="YPtFgZ8LJnQY6-V_tGsR-11" edge="1">
          <mxGeometry relative="1" as="geometry">
            <mxPoint x="-50" y="634.7931034482758" as="targetPoint" />
            <Array as="points">
              <mxPoint x="-120" y="645" />
              <mxPoint x="-120" y="540" />
              <mxPoint x="-60" y="540" />
            </Array>
          </mxGeometry>
        </mxCell>
        <mxCell id="6p9KUuZENFY64v_fNxvY-109" value="no_music" style="ellipse;whiteSpace=wrap;html=1;fontStyle=0;fontSize=10;" parent="1" vertex="1">
          <mxGeometry x="-110" y="630" width="100" height="30" as="geometry" />
        </mxCell>
        <mxCell id="6p9KUuZENFY64v_fNxvY-117" style="edgeStyle=orthogonalEdgeStyle;rounded=0;orthogonalLoop=1;jettySize=auto;html=1;exitX=0;exitY=0.5;exitDx=0;exitDy=0;endArrow=none;endFill=0;fontSize=10;entryX=0.5;entryY=1;entryDx=0;entryDy=0;" parent="1" source="6p9KUuZENFY64v_fNxvY-110" target="YPtFgZ8LJnQY6-V_tGsR-11" edge="1">
          <mxGeometry relative="1" as="geometry">
            <mxPoint x="-60.00000000000006" y="674.7931034482758" as="targetPoint" />
            <Array as="points">
              <mxPoint x="-120" y="685" />
              <mxPoint x="-120" y="540" />
              <mxPoint x="-60" y="540" />
            </Array>
          </mxGeometry>
        </mxCell>
        <mxCell id="6p9KUuZENFY64v_fNxvY-110" value="jukebox" style="ellipse;whiteSpace=wrap;html=1;fontStyle=0;fontSize=10;" parent="1" vertex="1">
          <mxGeometry x="-110" y="670" width="100" height="30" as="geometry" />
        </mxCell>
        <mxCell id="6p9KUuZENFY64v_fNxvY-118" style="edgeStyle=orthogonalEdgeStyle;rounded=0;orthogonalLoop=1;jettySize=auto;html=1;exitX=0;exitY=0.5;exitDx=0;exitDy=0;endArrow=none;endFill=0;fontSize=10;entryX=0.5;entryY=1;entryDx=0;entryDy=0;" parent="1" source="6p9KUuZENFY64v_fNxvY-111" target="YPtFgZ8LJnQY6-V_tGsR-11" edge="1">
          <mxGeometry relative="1" as="geometry">
            <mxPoint x="-60.00000000000006" y="714.7931034482758" as="targetPoint" />
            <Array as="points">
              <mxPoint x="-120" y="725" />
              <mxPoint x="-120" y="540" />
              <mxPoint x="-60" y="540" />
            </Array>
          </mxGeometry>
        </mxCell>
        <mxCell id="6p9KUuZENFY64v_fNxvY-111" value="live" style="ellipse;whiteSpace=wrap;html=1;fontStyle=0;fontSize=10;" parent="1" vertex="1">
          <mxGeometry x="-110" y="710" width="100" height="30" as="geometry" />
        </mxCell>
        <mxCell id="6p9KUuZENFY64v_fNxvY-119" style="edgeStyle=orthogonalEdgeStyle;rounded=0;orthogonalLoop=1;jettySize=auto;html=1;exitX=0;exitY=0.5;exitDx=0;exitDy=0;endArrow=none;endFill=0;fontSize=10;entryX=0.5;entryY=1;entryDx=0;entryDy=0;" parent="1" source="6p9KUuZENFY64v_fNxvY-112" target="YPtFgZ8LJnQY6-V_tGsR-11" edge="1">
          <mxGeometry relative="1" as="geometry">
            <mxPoint x="-60.00000000000006" y="750" as="targetPoint" />
            <Array as="points">
              <mxPoint x="-120" y="765" />
              <mxPoint x="-120" y="540" />
              <mxPoint x="-60" y="540" />
            </Array>
          </mxGeometry>
        </mxCell>
        <mxCell id="6p9KUuZENFY64v_fNxvY-112" value="video" style="ellipse;whiteSpace=wrap;html=1;fontStyle=0;fontSize=10;" parent="1" vertex="1">
          <mxGeometry x="-110" y="750" width="100" height="30" as="geometry" />
        </mxCell>
        <mxCell id="6p9KUuZENFY64v_fNxvY-120" style="edgeStyle=orthogonalEdgeStyle;rounded=0;orthogonalLoop=1;jettySize=auto;html=1;exitX=0;exitY=0.5;exitDx=0;exitDy=0;entryX=0.5;entryY=1;entryDx=0;entryDy=0;endArrow=none;endFill=0;fontSize=10;" parent="1" source="6p9KUuZENFY64v_fNxvY-113" target="YPtFgZ8LJnQY6-V_tGsR-11" edge="1">
          <mxGeometry relative="1" as="geometry">
            <Array as="points">
              <mxPoint x="-120" y="805" />
              <mxPoint x="-120" y="540" />
              <mxPoint x="-60" y="540" />
            </Array>
          </mxGeometry>
        </mxCell>
        <mxCell id="6p9KUuZENFY64v_fNxvY-113" value="karaoke" style="ellipse;whiteSpace=wrap;html=1;fontStyle=0;fontSize=10;" parent="1" vertex="1">
          <mxGeometry x="-110" y="790" width="100" height="30" as="geometry" />
        </mxCell>
        <mxCell id="6p9KUuZENFY64v_fNxvY-135" style="edgeStyle=orthogonalEdgeStyle;rounded=0;orthogonalLoop=1;jettySize=auto;html=1;exitX=0;exitY=0.5;exitDx=0;exitDy=0;endArrow=none;endFill=0;fontSize=10;entryX=0.5;entryY=1;entryDx=0;entryDy=0;" parent="1" source="6p9KUuZENFY64v_fNxvY-136" target="YPtFgZ8LJnQY6-V_tGsR-12" edge="1">
          <mxGeometry relative="1" as="geometry">
            <mxPoint x="140" y="620" as="targetPoint" />
            <Array as="points">
              <mxPoint x="10" y="625" />
              <mxPoint x="10" y="600" />
              <mxPoint x="60" y="600" />
            </Array>
          </mxGeometry>
        </mxCell>
        <mxCell id="6p9KUuZENFY64v_fNxvY-136" value="touristy" style="ellipse;whiteSpace=wrap;html=1;fontStyle=0;fontSize=10;" parent="1" vertex="1">
          <mxGeometry x="20" y="610" width="80" height="30" as="geometry" />
        </mxCell>
        <mxCell id="6p9KUuZENFY64v_fNxvY-137" style="edgeStyle=orthogonalEdgeStyle;rounded=0;orthogonalLoop=1;jettySize=auto;html=1;exitX=0;exitY=0.5;exitDx=0;exitDy=0;entryX=0.5;entryY=1;entryDx=0;entryDy=0;endArrow=none;endFill=0;fontSize=10;" parent="1" source="6p9KUuZENFY64v_fNxvY-138" target="YPtFgZ8LJnQY6-V_tGsR-12" edge="1">
          <mxGeometry relative="1" as="geometry">
            <mxPoint x="159.99999999999994" y="630" as="targetPoint" />
            <Array as="points">
              <mxPoint x="10" y="665" />
              <mxPoint x="10" y="600" />
              <mxPoint x="60" y="600" />
            </Array>
          </mxGeometry>
        </mxCell>
        <mxCell id="6p9KUuZENFY64v_fNxvY-138" value="hypster" style="ellipse;whiteSpace=wrap;html=1;fontStyle=0;fontSize=10;" parent="1" vertex="1">
          <mxGeometry x="20" y="650" width="80" height="30" as="geometry" />
        </mxCell>
        <mxCell id="6p9KUuZENFY64v_fNxvY-139" style="edgeStyle=orthogonalEdgeStyle;rounded=0;orthogonalLoop=1;jettySize=auto;html=1;exitX=0;exitY=0.5;exitDx=0;exitDy=0;endArrow=none;endFill=0;fontSize=10;entryX=0.5;entryY=1;entryDx=0;entryDy=0;" parent="1" source="6p9KUuZENFY64v_fNxvY-140" target="YPtFgZ8LJnQY6-V_tGsR-12" edge="1">
          <mxGeometry relative="1" as="geometry">
            <mxPoint x="159.99999999999994" y="630" as="targetPoint" />
            <Array as="points">
              <mxPoint x="10" y="705" />
              <mxPoint x="10" y="600" />
              <mxPoint x="60" y="600" />
            </Array>
          </mxGeometry>
        </mxCell>
        <mxCell id="6p9KUuZENFY64v_fNxvY-140" value="romantic" style="ellipse;whiteSpace=wrap;html=1;fontStyle=0;fontSize=10;" parent="1" vertex="1">
          <mxGeometry x="20" y="690" width="80" height="30" as="geometry" />
        </mxCell>
        <mxCell id="6p9KUuZENFY64v_fNxvY-141" style="edgeStyle=orthogonalEdgeStyle;rounded=0;orthogonalLoop=1;jettySize=auto;html=1;exitX=0;exitY=0.5;exitDx=0;exitDy=0;endArrow=none;endFill=0;fontSize=10;entryX=0.5;entryY=1;entryDx=0;entryDy=0;" parent="1" source="6p9KUuZENFY64v_fNxvY-142" target="YPtFgZ8LJnQY6-V_tGsR-12" edge="1">
          <mxGeometry relative="1" as="geometry">
            <mxPoint x="159.99999999999994" y="630" as="targetPoint" />
            <Array as="points">
              <mxPoint x="10" y="745" />
              <mxPoint x="10" y="600" />
              <mxPoint x="60" y="600" />
            </Array>
          </mxGeometry>
        </mxCell>
        <mxCell id="6p9KUuZENFY64v_fNxvY-142" value="divey" style="ellipse;whiteSpace=wrap;html=1;fontStyle=0;fontSize=10;" parent="1" vertex="1">
          <mxGeometry x="20" y="730" width="80" height="30" as="geometry" />
        </mxCell>
        <mxCell id="6p9KUuZENFY64v_fNxvY-143" style="edgeStyle=orthogonalEdgeStyle;rounded=0;orthogonalLoop=1;jettySize=auto;html=1;exitX=0;exitY=0.5;exitDx=0;exitDy=0;endArrow=none;endFill=0;fontSize=10;entryX=0.5;entryY=1;entryDx=0;entryDy=0;" parent="1" source="6p9KUuZENFY64v_fNxvY-144" target="YPtFgZ8LJnQY6-V_tGsR-12" edge="1">
          <mxGeometry relative="1" as="geometry">
            <mxPoint x="159.99999999999994" y="630" as="targetPoint" />
            <Array as="points">
              <mxPoint x="10" y="785" />
              <mxPoint x="10" y="600" />
              <mxPoint x="60" y="600" />
            </Array>
          </mxGeometry>
        </mxCell>
        <mxCell id="6p9KUuZENFY64v_fNxvY-144" value="intimate" style="ellipse;whiteSpace=wrap;html=1;fontStyle=0;fontSize=10;" parent="1" vertex="1">
          <mxGeometry x="20" y="770" width="80" height="30" as="geometry" />
        </mxCell>
        <mxCell id="6p9KUuZENFY64v_fNxvY-145" style="edgeStyle=orthogonalEdgeStyle;rounded=0;orthogonalLoop=1;jettySize=auto;html=1;exitX=0;exitY=0.5;exitDx=0;exitDy=0;endArrow=none;endFill=0;fontSize=10;entryX=0.5;entryY=1;entryDx=0;entryDy=0;" parent="1" source="6p9KUuZENFY64v_fNxvY-146" target="YPtFgZ8LJnQY6-V_tGsR-12" edge="1">
          <mxGeometry relative="1" as="geometry">
            <mxPoint x="159.99999999999994" y="630" as="targetPoint" />
            <Array as="points">
              <mxPoint x="10" y="825" />
              <mxPoint x="10" y="600" />
              <mxPoint x="60" y="600" />
            </Array>
          </mxGeometry>
        </mxCell>
        <mxCell id="6p9KUuZENFY64v_fNxvY-146" value="trendy" style="ellipse;whiteSpace=wrap;html=1;fontStyle=0;fontSize=10;" parent="1" vertex="1">
          <mxGeometry x="20" y="810" width="80" height="30" as="geometry" />
        </mxCell>
        <mxCell id="6p9KUuZENFY64v_fNxvY-147" style="edgeStyle=orthogonalEdgeStyle;rounded=0;orthogonalLoop=1;jettySize=auto;html=1;exitX=0;exitY=0.5;exitDx=0;exitDy=0;entryX=0.5;entryY=1;entryDx=0;entryDy=0;endArrow=none;endFill=0;fontSize=10;" parent="1" source="6p9KUuZENFY64v_fNxvY-148" target="YPtFgZ8LJnQY6-V_tGsR-12" edge="1">
          <mxGeometry relative="1" as="geometry">
            <mxPoint x="159.99999999999994" y="630" as="targetPoint" />
            <Array as="points">
              <mxPoint x="10" y="865" />
              <mxPoint x="10" y="600" />
              <mxPoint x="60" y="600" />
            </Array>
          </mxGeometry>
        </mxCell>
        <mxCell id="6p9KUuZENFY64v_fNxvY-148" value="upscale" style="ellipse;whiteSpace=wrap;html=1;fontStyle=0;fontSize=10;" parent="1" vertex="1">
          <mxGeometry x="20" y="850" width="80" height="30" as="geometry" />
        </mxCell>
        <mxCell id="6p9KUuZENFY64v_fNxvY-151" style="edgeStyle=orthogonalEdgeStyle;rounded=0;orthogonalLoop=1;jettySize=auto;html=1;exitX=0;exitY=0.5;exitDx=0;exitDy=0;endArrow=none;endFill=0;fontSize=10;entryX=0.5;entryY=1;entryDx=0;entryDy=0;" parent="1" source="6p9KUuZENFY64v_fNxvY-149" target="YPtFgZ8LJnQY6-V_tGsR-12" edge="1">
          <mxGeometry relative="1" as="geometry">
            <mxPoint x="140" y="730" as="targetPoint" />
            <Array as="points">
              <mxPoint x="10" y="905" />
              <mxPoint x="10" y="600" />
              <mxPoint x="60" y="600" />
            </Array>
          </mxGeometry>
        </mxCell>
        <mxCell id="6p9KUuZENFY64v_fNxvY-149" value="classy" style="ellipse;whiteSpace=wrap;html=1;fontStyle=0;fontSize=10;" parent="1" vertex="1">
          <mxGeometry x="20" y="890" width="80" height="30" as="geometry" />
        </mxCell>
        <mxCell id="6p9KUuZENFY64v_fNxvY-152" style="edgeStyle=orthogonalEdgeStyle;rounded=0;orthogonalLoop=1;jettySize=auto;html=1;exitX=0;exitY=0.5;exitDx=0;exitDy=0;entryX=0.5;entryY=1;entryDx=0;entryDy=0;endArrow=none;endFill=0;fontSize=10;" parent="1" source="6p9KUuZENFY64v_fNxvY-150" target="YPtFgZ8LJnQY6-V_tGsR-12" edge="1">
          <mxGeometry relative="1" as="geometry">
            <Array as="points">
              <mxPoint x="50" y="944.56" />
              <mxPoint x="10" y="944.56" />
              <mxPoint x="10" y="599.56" />
              <mxPoint x="60" y="599.56" />
            </Array>
            <mxPoint x="19.99999999999227" y="945" as="sourcePoint" />
          </mxGeometry>
        </mxCell>
        <mxCell id="6p9KUuZENFY64v_fNxvY-150" value="casual" style="ellipse;whiteSpace=wrap;html=1;fontStyle=0;fontSize=10;" parent="1" vertex="1">
          <mxGeometry x="20" y="932.56" width="80" height="30" as="geometry" />
        </mxCell>
        <mxCell id="6p9KUuZENFY64v_fNxvY-153" style="edgeStyle=orthogonalEdgeStyle;rounded=0;orthogonalLoop=1;jettySize=auto;html=1;exitX=0;exitY=0.5;exitDx=0;exitDy=0;endArrow=none;endFill=0;fontSize=10;entryX=0.5;entryY=1;entryDx=0;entryDy=0;" parent="1" source="6p9KUuZENFY64v_fNxvY-183" target="YPtFgZ8LJnQY6-V_tGsR-13" edge="1">
          <mxGeometry relative="1" as="geometry">
            <mxPoint x="140" y="530" as="targetPoint" />
            <Array as="points">
              <mxPoint x="130" y="565" />
              <mxPoint x="130" y="540" />
              <mxPoint x="170" y="540" />
            </Array>
            <mxPoint x="90" y="565" as="sourcePoint" />
          </mxGeometry>
        </mxCell>
        <mxCell id="6p9KUuZENFY64v_fNxvY-155" style="edgeStyle=orthogonalEdgeStyle;rounded=0;orthogonalLoop=1;jettySize=auto;html=1;exitX=0;exitY=0.5;exitDx=0;exitDy=0;entryX=0.5;entryY=1;entryDx=0;entryDy=0;endArrow=none;endFill=0;fontSize=10;" parent="1" source="6p9KUuZENFY64v_fNxvY-156" target="YPtFgZ8LJnQY6-V_tGsR-13" edge="1">
          <mxGeometry relative="1" as="geometry">
            <mxPoint x="140" y="530" as="targetPoint" />
            <Array as="points">
              <mxPoint x="130" y="605" />
              <mxPoint x="130" y="540" />
              <mxPoint x="170" y="540" />
            </Array>
          </mxGeometry>
        </mxCell>
        <mxCell id="6p9KUuZENFY64v_fNxvY-156" value="latenight" style="ellipse;whiteSpace=wrap;html=1;fontStyle=0;fontSize=10;" parent="1" vertex="1">
          <mxGeometry x="140" y="590" width="60" height="30" as="geometry" />
        </mxCell>
        <mxCell id="6p9KUuZENFY64v_fNxvY-157" style="edgeStyle=orthogonalEdgeStyle;rounded=0;orthogonalLoop=1;jettySize=auto;html=1;exitX=0;exitY=0.5;exitDx=0;exitDy=0;endArrow=none;endFill=0;fontSize=10;entryX=0.5;entryY=1;entryDx=0;entryDy=0;" parent="1" source="6p9KUuZENFY64v_fNxvY-158" target="YPtFgZ8LJnQY6-V_tGsR-13" edge="1">
          <mxGeometry relative="1" as="geometry">
            <mxPoint x="140" y="530" as="targetPoint" />
            <Array as="points">
              <mxPoint x="130" y="645" />
              <mxPoint x="130" y="540" />
              <mxPoint x="170" y="540" />
            </Array>
          </mxGeometry>
        </mxCell>
        <mxCell id="6p9KUuZENFY64v_fNxvY-158" value="lunch" style="ellipse;whiteSpace=wrap;html=1;fontStyle=0;fontSize=10;" parent="1" vertex="1">
          <mxGeometry x="140" y="630" width="60" height="30" as="geometry" />
        </mxCell>
        <mxCell id="6p9KUuZENFY64v_fNxvY-159" style="edgeStyle=orthogonalEdgeStyle;rounded=0;orthogonalLoop=1;jettySize=auto;html=1;exitX=0;exitY=0.5;exitDx=0;exitDy=0;endArrow=none;endFill=0;fontSize=10;entryX=0.5;entryY=1;entryDx=0;entryDy=0;" parent="1" source="6p9KUuZENFY64v_fNxvY-160" target="YPtFgZ8LJnQY6-V_tGsR-13" edge="1">
          <mxGeometry relative="1" as="geometry">
            <mxPoint x="140" y="530" as="targetPoint" />
            <Array as="points">
              <mxPoint x="130" y="685" />
              <mxPoint x="130" y="540" />
              <mxPoint x="170" y="540" />
            </Array>
          </mxGeometry>
        </mxCell>
        <mxCell id="6p9KUuZENFY64v_fNxvY-160" value="dinner" style="ellipse;whiteSpace=wrap;html=1;fontStyle=0;fontSize=10;" parent="1" vertex="1">
          <mxGeometry x="140" y="670" width="60" height="30" as="geometry" />
        </mxCell>
        <mxCell id="6p9KUuZENFY64v_fNxvY-161" style="edgeStyle=orthogonalEdgeStyle;rounded=0;orthogonalLoop=1;jettySize=auto;html=1;exitX=0;exitY=0.5;exitDx=0;exitDy=0;endArrow=none;endFill=0;fontSize=10;entryX=0.5;entryY=1;entryDx=0;entryDy=0;" parent="1" source="6p9KUuZENFY64v_fNxvY-181" target="YPtFgZ8LJnQY6-V_tGsR-13" edge="1">
          <mxGeometry relative="1" as="geometry">
            <mxPoint x="140" y="530" as="targetPoint" />
            <Array as="points">
              <mxPoint x="130" y="725" />
              <mxPoint x="130" y="540" />
              <mxPoint x="170" y="540" />
            </Array>
            <mxPoint x="90" y="725" as="sourcePoint" />
          </mxGeometry>
        </mxCell>
        <mxCell id="6p9KUuZENFY64v_fNxvY-172" value="garage" style="ellipse;whiteSpace=wrap;html=1;fontStyle=0;fontSize=10;" parent="1" vertex="1">
          <mxGeometry x="267.5" y="840" width="60" height="30" as="geometry" />
        </mxCell>
        <mxCell id="6p9KUuZENFY64v_fNxvY-174" value="street" style="ellipse;whiteSpace=wrap;html=1;fontStyle=0;fontSize=10;" parent="1" vertex="1">
          <mxGeometry x="267.5" y="880" width="60" height="30" as="geometry" />
        </mxCell>
        <mxCell id="6p9KUuZENFY64v_fNxvY-176" value="validated" style="ellipse;whiteSpace=wrap;html=1;fontStyle=0;fontSize=10;" parent="1" vertex="1">
          <mxGeometry x="267.5" y="920" width="60" height="30" as="geometry" />
        </mxCell>
        <mxCell id="6p9KUuZENFY64v_fNxvY-178" value="dinner" style="ellipse;whiteSpace=wrap;html=1;fontStyle=0;fontSize=10;" parent="1" vertex="1">
          <mxGeometry x="267.5" y="960" width="60" height="30" as="geometry" />
        </mxCell>
        <mxCell id="6p9KUuZENFY64v_fNxvY-180" value="valet" style="ellipse;whiteSpace=wrap;html=1;fontStyle=0;fontSize=10;" parent="1" vertex="1">
          <mxGeometry x="267.5" y="1000" width="60" height="30" as="geometry" />
        </mxCell>
        <mxCell id="6p9KUuZENFY64v_fNxvY-181" value="brunch" style="ellipse;whiteSpace=wrap;html=1;fontStyle=0;fontSize=10;" parent="1" vertex="1">
          <mxGeometry x="140" y="710" width="60" height="30" as="geometry" />
        </mxCell>
        <mxCell id="6p9KUuZENFY64v_fNxvY-183" value="dessert" style="ellipse;whiteSpace=wrap;html=1;fontStyle=0;fontSize=10;" parent="1" vertex="1">
          <mxGeometry x="140" y="550" width="60" height="30" as="geometry" />
        </mxCell>
        <mxCell id="6p9KUuZENFY64v_fNxvY-185" value="lot" style="ellipse;whiteSpace=wrap;html=1;fontStyle=0;fontSize=10;" parent="1" vertex="1">
          <mxGeometry x="267.5" y="960" width="60" height="30" as="geometry" />
        </mxCell>
        <mxCell id="6p9KUuZENFY64v_fNxvY-211" style="edgeStyle=orthogonalEdgeStyle;rounded=0;orthogonalLoop=1;jettySize=auto;html=1;exitX=0.5;exitY=0;exitDx=0;exitDy=0;entryX=0.5;entryY=1;entryDx=0;entryDy=0;endArrow=none;endFill=0;fontSize=10;" parent="1" source="6p9KUuZENFY64v_fNxvY-186" target="YPtFgZ8LJnQY6-V_tGsR-9" edge="1">
          <mxGeometry relative="1" as="geometry" />
        </mxCell>
        <mxCell id="6p9KUuZENFY64v_fNxvY-186" value="id" style="ellipse;whiteSpace=wrap;html=1;fontStyle=4;fontSize=10;" parent="1" vertex="1">
          <mxGeometry x="530" y="739.88" width="50" height="30" as="geometry" />
        </mxCell>
        <mxCell id="6p9KUuZENFY64v_fNxvY-210" style="edgeStyle=orthogonalEdgeStyle;rounded=0;orthogonalLoop=1;jettySize=auto;html=1;exitX=0.5;exitY=0;exitDx=0;exitDy=0;endArrow=none;endFill=0;fontSize=10;entryX=0.5;entryY=1;entryDx=0;entryDy=0;" parent="1" source="6p9KUuZENFY64v_fNxvY-187" target="YPtFgZ8LJnQY6-V_tGsR-9" edge="1">
          <mxGeometry relative="1" as="geometry">
            <mxPoint x="888" y="849.88" as="targetPoint" />
          </mxGeometry>
        </mxCell>
        <mxCell id="6p9KUuZENFY64v_fNxvY-187" value="level" style="ellipse;whiteSpace=wrap;html=1;fontStyle=0;fontSize=10;" parent="1" vertex="1">
          <mxGeometry x="600" y="739.88" width="50" height="30" as="geometry" />
        </mxCell>
        <mxCell id="6p9KUuZENFY64v_fNxvY-209" style="edgeStyle=orthogonalEdgeStyle;rounded=0;orthogonalLoop=1;jettySize=auto;html=1;exitX=0.5;exitY=0;exitDx=0;exitDy=0;endArrow=none;endFill=0;fontSize=10;strokeWidth=1;startArrow=block;startFill=1;entryX=0.414;entryY=1.014;entryDx=0;entryDy=0;entryPerimeter=0;" parent="1" source="6p9KUuZENFY64v_fNxvY-207" target="YPtFgZ8LJnQY6-V_tGsR-7" edge="1">
          <mxGeometry relative="1" as="geometry">
            <Array as="points">
              <mxPoint x="590" y="480" />
              <mxPoint x="590" y="480" />
            </Array>
            <mxPoint x="600" y="220" as="targetPoint" />
          </mxGeometry>
        </mxCell>
        <mxCell id="6p9KUuZENFY64v_fNxvY-207" value="has" style="rhombus;whiteSpace=wrap;html=1;" parent="1" vertex="1">
          <mxGeometry x="530" y="519.88" width="120" height="80" as="geometry" />
        </mxCell>
        <mxCell id="lrEihr4bJ9vNrvf76rqn-1" value="&lt;div&gt;attribute&lt;/div&gt;&lt;div&gt;music&lt;br&gt;&lt;/div&gt;" style="rhombus;whiteSpace=wrap;html=1;strokeWidth=2;gradientColor=none;" parent="1" vertex="1">
          <mxGeometry x="-120" y="320" width="120" height="80" as="geometry" />
        </mxCell>
        <mxCell id="lrEihr4bJ9vNrvf76rqn-2" value="&lt;div&gt;attribute&lt;/div&gt;&lt;div&gt;ambiance&lt;br&gt;&lt;/div&gt;" style="rhombus;whiteSpace=wrap;html=1;strokeWidth=2;gradientColor=none;" parent="1" vertex="1">
          <mxGeometry y="400" width="120" height="80" as="geometry" />
        </mxCell>
        <mxCell id="lrEihr4bJ9vNrvf76rqn-5" style="edgeStyle=orthogonalEdgeStyle;rounded=0;orthogonalLoop=1;jettySize=auto;html=1;startArrow=block;startFill=1;endArrow=none;endFill=0;strokeWidth=1;exitX=0.5;exitY=0;exitDx=0;exitDy=0;entryX=0.25;entryY=1;entryDx=0;entryDy=0;" parent="1" source="lrEihr4bJ9vNrvf76rqn-4" target="YPtFgZ8LJnQY6-V_tGsR-7" edge="1">
          <mxGeometry relative="1" as="geometry">
            <Array as="points">
              <mxPoint x="170" y="290" />
              <mxPoint x="570" y="290" />
            </Array>
            <mxPoint x="20" y="490" as="sourcePoint" />
            <mxPoint x="50" y="350" as="targetPoint" />
          </mxGeometry>
        </mxCell>
        <mxCell id="lrEihr4bJ9vNrvf76rqn-4" value="&lt;div&gt;attribute&lt;/div&gt;&lt;div&gt;good_for_meal&lt;br&gt;&lt;/div&gt;" style="rhombus;whiteSpace=wrap;html=1;strokeWidth=2;gradientColor=none;" parent="1" vertex="1">
          <mxGeometry x="110" y="320" width="120" height="80" as="geometry" />
        </mxCell>
        <mxCell id="lrEihr4bJ9vNrvf76rqn-8" style="edgeStyle=orthogonalEdgeStyle;rounded=0;orthogonalLoop=1;jettySize=auto;html=1;exitX=0.5;exitY=0;exitDx=0;exitDy=0;startArrow=block;startFill=1;endArrow=none;endFill=0;strokeWidth=1;entryX=0.25;entryY=1;entryDx=0;entryDy=0;" parent="1" source="lrEihr4bJ9vNrvf76rqn-6" target="YPtFgZ8LJnQY6-V_tGsR-7" edge="1">
          <mxGeometry relative="1" as="geometry">
            <mxPoint x="150" y="340" as="targetPoint" />
            <Array as="points">
              <mxPoint x="280" y="290" />
              <mxPoint x="570" y="290" />
            </Array>
          </mxGeometry>
        </mxCell>
        <mxCell id="lrEihr4bJ9vNrvf76rqn-6" value="&lt;div&gt;attribute&lt;/div&gt;&lt;div&gt;business&lt;/div&gt;&lt;div&gt;parking&lt;br&gt;&lt;/div&gt;" style="rhombus;whiteSpace=wrap;html=1;strokeWidth=2;gradientColor=none;" parent="1" vertex="1">
          <mxGeometry x="220" y="400" width="120" height="80" as="geometry" />
        </mxCell>
        <mxCell id="lrEihr4bJ9vNrvf76rqn-9" style="edgeStyle=orthogonalEdgeStyle;rounded=0;orthogonalLoop=1;jettySize=auto;html=1;exitX=0.5;exitY=0;exitDx=0;exitDy=0;startArrow=block;startFill=1;endArrow=none;endFill=0;strokeWidth=1;entryX=0.25;entryY=1;entryDx=0;entryDy=0;" parent="1" source="lrEihr4bJ9vNrvf76rqn-7" target="YPtFgZ8LJnQY6-V_tGsR-7" edge="1">
          <mxGeometry relative="1" as="geometry">
            <mxPoint x="290" y="350" as="targetPoint" />
            <Array as="points">
              <mxPoint x="485" y="290" />
              <mxPoint x="570" y="290" />
            </Array>
          </mxGeometry>
        </mxCell>
        <mxCell id="lrEihr4bJ9vNrvf76rqn-7" value="&lt;div&gt;attribute&lt;/div&gt;&lt;div&gt;dietary&lt;/div&gt;&lt;div&gt;restrictions&lt;/div&gt;" style="rhombus;whiteSpace=wrap;html=1;strokeWidth=2;gradientColor=none;" parent="1" vertex="1">
          <mxGeometry x="425" y="309.88" width="120" height="80" as="geometry" />
        </mxCell>
        <mxCell id="lrEihr4bJ9vNrvf76rqn-13" value="id" style="ellipse;whiteSpace=wrap;html=1;fontStyle=4;fontSize=10;" parent="1" vertex="1">
          <mxGeometry x="200" y="-35.24000000000001" width="70" height="30" as="geometry" />
        </mxCell>
        <mxCell id="lrEihr4bJ9vNrvf76rqn-16" style="edgeStyle=orthogonalEdgeStyle;rounded=0;orthogonalLoop=1;jettySize=auto;html=1;exitX=0.5;exitY=1;exitDx=0;exitDy=0;entryX=0.5;entryY=0;entryDx=0;entryDy=0;startArrow=none;startFill=0;endArrow=none;endFill=0;strokeWidth=1;" parent="1" source="lrEihr4bJ9vNrvf76rqn-14" target="YPtFgZ8LJnQY6-V_tGsR-3" edge="1">
          <mxGeometry relative="1" as="geometry">
            <Array as="points">
              <mxPoint x="325" y="14.879999999999995" />
              <mxPoint x="280" y="14.879999999999995" />
            </Array>
          </mxGeometry>
        </mxCell>
        <mxCell id="lrEihr4bJ9vNrvf76rqn-14" value="name" style="ellipse;whiteSpace=wrap;html=1;fontStyle=0;fontSize=10;" parent="1" vertex="1">
          <mxGeometry x="290" y="-35.24000000000001" width="70" height="30" as="geometry" />
        </mxCell>
        <mxCell id="lrEihr4bJ9vNrvf76rqn-17" value="id" style="ellipse;whiteSpace=wrap;html=1;fontStyle=4;fontSize=10;" parent="1" vertex="1">
          <mxGeometry x="680" y="94.88" width="75" height="30" as="geometry" />
        </mxCell>
        <mxCell id="lrEihr4bJ9vNrvf76rqn-23" value="is_open" style="ellipse;whiteSpace=wrap;html=1;fontStyle=0;fontSize=10;" parent="1" vertex="1">
          <mxGeometry x="680" y="137.44" width="75" height="30" as="geometry" />
        </mxCell>
        <mxCell id="c20AXmqo6lOxg8rbnFz8-1" style="edgeStyle=orthogonalEdgeStyle;rounded=0;orthogonalLoop=1;jettySize=auto;html=1;exitX=1;exitY=0.5;exitDx=0;exitDy=0;entryX=0;entryY=0.5;entryDx=0;entryDy=0;endArrow=none;endFill=0;" edge="1" parent="1" source="lrEihr4bJ9vNrvf76rqn-28" target="lrEihr4bJ9vNrvf76rqn-34">
          <mxGeometry relative="1" as="geometry">
            <Array as="points">
              <mxPoint x="820" y="509.88" />
              <mxPoint x="820" y="539.88" />
            </Array>
          </mxGeometry>
        </mxCell>
        <mxCell id="c20AXmqo6lOxg8rbnFz8-12" style="edgeStyle=orthogonalEdgeStyle;rounded=0;orthogonalLoop=1;jettySize=auto;html=1;exitX=0;exitY=0.5;exitDx=0;exitDy=0;entryX=0.59;entryY=1.008;entryDx=0;entryDy=0;entryPerimeter=0;endArrow=none;endFill=0;strokeWidth=1;" edge="1" parent="1" source="lrEihr4bJ9vNrvf76rqn-28" target="YPtFgZ8LJnQY6-V_tGsR-7">
          <mxGeometry relative="1" as="geometry" />
        </mxCell>
        <mxCell id="lrEihr4bJ9vNrvf76rqn-28" value="schedule" style="rhombus;whiteSpace=wrap;html=1;strokeWidth=1;gradientColor=none;" parent="1" vertex="1">
          <mxGeometry x="690" y="469.88" width="120" height="80" as="geometry" />
        </mxCell>
        <mxCell id="lrEihr4bJ9vNrvf76rqn-38" style="edgeStyle=orthogonalEdgeStyle;rounded=0;orthogonalLoop=1;jettySize=auto;html=1;exitX=0.5;exitY=1;exitDx=0;exitDy=0;entryX=0.5;entryY=0;entryDx=0;entryDy=0;startArrow=none;startFill=0;endArrow=none;endFill=0;strokeWidth=1;" parent="1" source="lbpC--ciQa-AeObUArQM-5" target="lrEihr4bJ9vNrvf76rqn-37" edge="1">
          <mxGeometry relative="1" as="geometry">
            <mxPoint x="705" y="137.44" as="targetPoint" />
          </mxGeometry>
        </mxCell>
        <mxCell id="c20AXmqo6lOxg8rbnFz8-2" style="edgeStyle=orthogonalEdgeStyle;rounded=0;orthogonalLoop=1;jettySize=auto;html=1;exitX=0;exitY=0.5;exitDx=0;exitDy=0;entryX=1;entryY=0.5;entryDx=0;entryDy=0;endArrow=none;endFill=0;" edge="1" parent="1" source="lrEihr4bJ9vNrvf76rqn-33" target="lrEihr4bJ9vNrvf76rqn-28">
          <mxGeometry relative="1" as="geometry">
            <Array as="points">
              <mxPoint x="820" y="474.88" />
              <mxPoint x="820" y="509.88" />
            </Array>
          </mxGeometry>
        </mxCell>
        <mxCell id="lrEihr4bJ9vNrvf76rqn-33" value="end_at" style="ellipse;whiteSpace=wrap;html=1;fontStyle=0;fontSize=10;" parent="1" vertex="1">
          <mxGeometry x="830" y="459.88" width="50" height="30" as="geometry" />
        </mxCell>
        <mxCell id="lrEihr4bJ9vNrvf76rqn-34" value="start_at" style="ellipse;whiteSpace=wrap;html=1;fontStyle=0;fontSize=10;" parent="1" vertex="1">
          <mxGeometry x="830" y="524.88" width="50" height="30" as="geometry" />
        </mxCell>
        <mxCell id="lrEihr4bJ9vNrvf76rqn-37" value="name" style="ellipse;whiteSpace=wrap;html=1;fontStyle=0;fontSize=10;" parent="1" vertex="1">
          <mxGeometry x="760" y="650" width="50" height="30" as="geometry" />
        </mxCell>
        <mxCell id="cfK3BOpUZNMTCfiEexGw-11" value="" style="edgeStyle=orthogonalEdgeStyle;rounded=0;orthogonalLoop=1;jettySize=auto;html=1;endArrow=none;endFill=0;" parent="1" source="lrEihr4bJ9vNrvf76rqn-39" target="YPtFgZ8LJnQY6-V_tGsR-16" edge="1">
          <mxGeometry relative="1" as="geometry" />
        </mxCell>
        <mxCell id="lrEihr4bJ9vNrvf76rqn-39" value="latitude" style="ellipse;whiteSpace=wrap;html=1;fontStyle=0;fontSize=10;" parent="1" vertex="1">
          <mxGeometry x="342.5" y="100.00000000000003" width="75" height="30" as="geometry" />
        </mxCell>
        <mxCell id="cfK3BOpUZNMTCfiEexGw-12" style="edgeStyle=orthogonalEdgeStyle;rounded=0;orthogonalLoop=1;jettySize=auto;html=1;exitX=0.5;exitY=1;exitDx=0;exitDy=0;entryX=0.5;entryY=0;entryDx=0;entryDy=0;endArrow=none;endFill=0;" parent="1" source="lrEihr4bJ9vNrvf76rqn-40" target="YPtFgZ8LJnQY6-V_tGsR-16" edge="1">
          <mxGeometry relative="1" as="geometry">
            <Array as="points">
              <mxPoint x="463" y="140" />
              <mxPoint x="380" y="140" />
            </Array>
          </mxGeometry>
        </mxCell>
        <mxCell id="lrEihr4bJ9vNrvf76rqn-40" value="longitude" style="ellipse;whiteSpace=wrap;html=1;fontStyle=0;fontSize=10;" parent="1" vertex="1">
          <mxGeometry x="425" y="100" width="75" height="30" as="geometry" />
        </mxCell>
        <mxCell id="lrEihr4bJ9vNrvf76rqn-43" value="name" style="ellipse;whiteSpace=wrap;html=1;fontStyle=0;fontSize=10;" parent="1" vertex="1">
          <mxGeometry x="680" y="174.88" width="75" height="30" as="geometry" />
        </mxCell>
        <mxCell id="lrEihr4bJ9vNrvf76rqn-45" value="review_count" style="ellipse;whiteSpace=wrap;html=1;fontStyle=0;fontSize=10;" parent="1" vertex="1">
          <mxGeometry x="680" y="214.88" width="75" height="30" as="geometry" />
        </mxCell>
        <mxCell id="lrEihr4bJ9vNrvf76rqn-47" value="stars" style="ellipse;whiteSpace=wrap;html=1;fontStyle=0;fontSize=10;" parent="1" vertex="1">
          <mxGeometry x="680" y="254.88" width="75" height="30" as="geometry" />
        </mxCell>
        <mxCell id="lrEihr4bJ9vNrvf76rqn-50" style="edgeStyle=orthogonalEdgeStyle;rounded=0;orthogonalLoop=1;jettySize=auto;html=1;exitX=0.5;exitY=0;exitDx=0;exitDy=0;entryX=0.25;entryY=0;entryDx=0;entryDy=0;startArrow=none;startFill=0;endArrow=none;endFill=0;strokeWidth=1;" parent="1" source="lrEihr4bJ9vNrvf76rqn-49" target="YPtFgZ8LJnQY6-V_tGsR-6" edge="1">
          <mxGeometry relative="1" as="geometry" />
        </mxCell>
        <mxCell id="lrEihr4bJ9vNrvf76rqn-51" style="edgeStyle=orthogonalEdgeStyle;rounded=0;orthogonalLoop=1;jettySize=auto;html=1;exitX=0.5;exitY=1;exitDx=0;exitDy=0;entryX=0.25;entryY=1;entryDx=0;entryDy=0;startArrow=none;startFill=0;endArrow=none;endFill=0;strokeWidth=1;" parent="1" source="lrEihr4bJ9vNrvf76rqn-49" target="YPtFgZ8LJnQY6-V_tGsR-6" edge="1">
          <mxGeometry relative="1" as="geometry" />
        </mxCell>
        <mxCell id="lrEihr4bJ9vNrvf76rqn-49" value="are_friends" style="rhombus;whiteSpace=wrap;html=1;strokeWidth=1;gradientColor=none;" parent="1" vertex="1">
          <mxGeometry x="800" y="140" width="120" height="80" as="geometry" />
        </mxCell>
        <mxCell id="6p9KUuZENFY64v_fNxvY-32" value="cool" style="ellipse;whiteSpace=wrap;html=1;fontSize=10;" parent="1" vertex="1">
          <mxGeometry x="1080" y="104.88" width="92" height="30" as="geometry" />
        </mxCell>
        <mxCell id="azv66595Vb5ihQFNeoaP-2" style="edgeStyle=orthogonalEdgeStyle;rounded=0;orthogonalLoop=1;jettySize=auto;html=1;exitX=1;exitY=0.5;exitDx=0;exitDy=0;entryX=0;entryY=0.5;entryDx=0;entryDy=0;endArrow=none;endFill=0;fontSize=9;" parent="1" source="YPtFgZ8LJnQY6-V_tGsR-6" target="6p9KUuZENFY64v_fNxvY-32" edge="1">
          <mxGeometry relative="1" as="geometry">
            <Array as="points">
              <mxPoint x="1070" y="180" />
              <mxPoint x="1070" y="120" />
              <mxPoint x="1080" y="120" />
            </Array>
            <mxPoint x="1061" y="180" as="sourcePoint" />
            <mxPoint x="1340.0000000000023" y="85" as="targetPoint" />
          </mxGeometry>
        </mxCell>
        <mxCell id="6p9KUuZENFY64v_fNxvY-38" value="review_count" style="ellipse;whiteSpace=wrap;html=1;fontSize=10;" parent="1" vertex="1">
          <mxGeometry x="1080" y="224.88" width="92" height="30" as="geometry" />
        </mxCell>
        <mxCell id="6p9KUuZENFY64v_fNxvY-34" value="fans" style="ellipse;whiteSpace=wrap;html=1;fontSize=10;" parent="1" vertex="1">
          <mxGeometry x="1080" y="304.88" width="92" height="30" as="geometry" />
        </mxCell>
        <mxCell id="6p9KUuZENFY64v_fNxvY-35" value="funny" style="ellipse;whiteSpace=wrap;html=1;fontSize=10;" parent="1" vertex="1">
          <mxGeometry x="1080" y="344.88" width="92" height="30" as="geometry" />
        </mxCell>
        <mxCell id="6p9KUuZENFY64v_fNxvY-36" value="useful" style="ellipse;whiteSpace=wrap;html=1;fontSize=10;" parent="1" vertex="1">
          <mxGeometry x="1080" y="184.88" width="92" height="30" as="geometry" />
        </mxCell>
        <mxCell id="azv66595Vb5ihQFNeoaP-6" style="edgeStyle=orthogonalEdgeStyle;rounded=0;orthogonalLoop=1;jettySize=auto;html=1;exitX=1;exitY=0.5;exitDx=0;exitDy=0;entryX=0;entryY=0.5;entryDx=0;entryDy=0;endArrow=none;endFill=0;fontSize=9;" parent="1" source="YPtFgZ8LJnQY6-V_tGsR-6" target="6p9KUuZENFY64v_fNxvY-36" edge="1">
          <mxGeometry relative="1" as="geometry">
            <Array as="points">
              <mxPoint x="1070" y="180" />
              <mxPoint x="1070" y="200" />
            </Array>
            <mxPoint x="1061" y="180" as="sourcePoint" />
            <mxPoint x="1340" y="245" as="targetPoint" />
          </mxGeometry>
        </mxCell>
        <mxCell id="c20AXmqo6lOxg8rbnFz8-3" style="edgeStyle=orthogonalEdgeStyle;rounded=0;orthogonalLoop=1;jettySize=auto;html=1;exitX=0.5;exitY=0;exitDx=0;exitDy=0;entryX=0.5;entryY=1;entryDx=0;entryDy=0;endArrow=none;endFill=0;" edge="1" parent="1" source="lbpC--ciQa-AeObUArQM-5" target="lrEihr4bJ9vNrvf76rqn-28">
          <mxGeometry relative="1" as="geometry" />
        </mxCell>
        <mxCell id="lbpC--ciQa-AeObUArQM-5" value="day" style="rounded=0;whiteSpace=wrap;html=1;" parent="1" vertex="1">
          <mxGeometry x="690" y="570" width="120" height="40" as="geometry" />
        </mxCell>
        <mxCell id="lbpC--ciQa-AeObUArQM-9" style="edgeStyle=orthogonalEdgeStyle;rounded=0;orthogonalLoop=1;jettySize=auto;html=1;exitX=0.5;exitY=0;exitDx=0;exitDy=0;startArrow=none;startFill=0;endArrow=none;endFill=0;strokeWidth=1;entryX=0.5;entryY=1;entryDx=0;entryDy=0;" parent="1" source="lbpC--ciQa-AeObUArQM-8" target="lbpC--ciQa-AeObUArQM-5" edge="1">
          <mxGeometry relative="1" as="geometry">
            <mxPoint x="751" y="620" as="targetPoint" />
          </mxGeometry>
        </mxCell>
        <mxCell id="lbpC--ciQa-AeObUArQM-8" value="id" style="ellipse;whiteSpace=wrap;html=1;fontStyle=4;fontSize=10;" parent="1" vertex="1">
          <mxGeometry x="690" y="650" width="50" height="30" as="geometry" />
        </mxCell>
        <mxCell id="cfK3BOpUZNMTCfiEexGw-13" style="edgeStyle=orthogonalEdgeStyle;rounded=0;orthogonalLoop=1;jettySize=auto;html=1;exitX=0.5;exitY=1;exitDx=0;exitDy=0;entryX=0.5;entryY=0;entryDx=0;entryDy=0;endArrow=none;endFill=0;" parent="1" source="YckhC25O4RbcmvkIw9AK-6" target="YPtFgZ8LJnQY6-V_tGsR-16" edge="1">
          <mxGeometry relative="1" as="geometry">
            <Array as="points">
              <mxPoint x="298" y="140" />
              <mxPoint x="380" y="140" />
            </Array>
          </mxGeometry>
        </mxCell>
        <mxCell id="YckhC25O4RbcmvkIw9AK-6" value="address" style="ellipse;whiteSpace=wrap;html=1;fontStyle=0;fontSize=10;" parent="1" vertex="1">
          <mxGeometry x="260" y="100" width="75" height="30" as="geometry" />
        </mxCell>
        <mxCell id="cfK3BOpUZNMTCfiEexGw-2" style="edgeStyle=orthogonalEdgeStyle;rounded=0;orthogonalLoop=1;jettySize=auto;html=1;exitX=1;exitY=0.5;exitDx=0;exitDy=0;entryX=0;entryY=0.5;entryDx=0;entryDy=0;endArrow=none;endFill=0;startArrow=block;startFill=1;strokeWidth=2;" parent="1" source="cfK3BOpUZNMTCfiEexGw-3" target="cfK3BOpUZNMTCfiEexGw-4" edge="1">
          <mxGeometry relative="1" as="geometry" />
        </mxCell>
        <mxCell id="cfK3BOpUZNMTCfiEexGw-9" style="edgeStyle=orthogonalEdgeStyle;rounded=0;orthogonalLoop=1;jettySize=auto;html=1;exitX=0;exitY=0.5;exitDx=0;exitDy=0;entryX=1;entryY=0.5;entryDx=0;entryDy=0;endArrow=none;endFill=0;" parent="1" source="cfK3BOpUZNMTCfiEexGw-3" target="YPtFgZ8LJnQY6-V_tGsR-8" edge="1">
          <mxGeometry relative="1" as="geometry" />
        </mxCell>
        <mxCell id="cfK3BOpUZNMTCfiEexGw-3" value="is_located" style="rhombus;whiteSpace=wrap;html=1;" parent="1" vertex="1">
          <mxGeometry x="-60" y="151.16" width="120" height="80" as="geometry" />
        </mxCell>
        <mxCell id="cfK3BOpUZNMTCfiEexGw-4" value="postal_code" style="rounded=0;whiteSpace=wrap;html=1;" parent="1" vertex="1">
          <mxGeometry x="100" y="171.16" width="120" height="40" as="geometry" />
        </mxCell>
        <mxCell id="cfK3BOpUZNMTCfiEexGw-5" style="edgeStyle=orthogonalEdgeStyle;rounded=0;orthogonalLoop=1;jettySize=auto;html=1;exitX=0.5;exitY=1;exitDx=0;exitDy=0;entryX=0.5;entryY=0;entryDx=0;entryDy=0;endArrow=none;endFill=0;" parent="1" source="cfK3BOpUZNMTCfiEexGw-6" target="cfK3BOpUZNMTCfiEexGw-4" edge="1">
          <mxGeometry relative="1" as="geometry">
            <Array as="points">
              <mxPoint x="119" y="150" />
              <mxPoint x="160" y="150" />
            </Array>
          </mxGeometry>
        </mxCell>
        <mxCell id="cfK3BOpUZNMTCfiEexGw-6" value="id" style="ellipse;whiteSpace=wrap;html=1;fontStyle=4;fontSize=10;" parent="1" vertex="1">
          <mxGeometry x="80" y="100" width="69" height="30" as="geometry" />
        </mxCell>
        <mxCell id="cfK3BOpUZNMTCfiEexGw-7" value="postal_code" style="ellipse;whiteSpace=wrap;html=1;fontStyle=0;fontSize=10;" parent="1" vertex="1">
          <mxGeometry x="168" y="100" width="72" height="30" as="geometry" />
        </mxCell>
        <mxCell id="cfK3BOpUZNMTCfiEexGw-8" style="edgeStyle=orthogonalEdgeStyle;rounded=0;orthogonalLoop=1;jettySize=auto;html=1;exitX=0.5;exitY=1;exitDx=0;exitDy=0;entryX=0.5;entryY=0;entryDx=0;entryDy=0;endArrow=none;endFill=0;" parent="1" source="cfK3BOpUZNMTCfiEexGw-7" target="cfK3BOpUZNMTCfiEexGw-4" edge="1">
          <mxGeometry relative="1" as="geometry">
            <mxPoint x="255" y="147.44000000000023" as="sourcePoint" />
            <mxPoint x="220" y="167.44000000000023" as="targetPoint" />
            <Array as="points">
              <mxPoint x="160" y="150" />
            </Array>
          </mxGeometry>
        </mxCell>
        <mxCell id="e5_8AVl35VqmBAM99YCG-1" value="tip" style="rhombus;whiteSpace=wrap;html=1;strokeWidth=1;gradientColor=none;" parent="1" vertex="1">
          <mxGeometry x="768" y="280.06" width="120" height="80" as="geometry" />
        </mxCell>
        <mxCell id="e5_8AVl35VqmBAM99YCG-4" value="review" style="rhombus;whiteSpace=wrap;html=1;strokeWidth=1;gradientColor=none;" parent="1" vertex="1">
          <mxGeometry x="769" y="14.880000000000003" width="120" height="80" as="geometry" />
        </mxCell>
        <mxCell id="e5_8AVl35VqmBAM99YCG-9" style="edgeStyle=orthogonalEdgeStyle;rounded=0;orthogonalLoop=1;jettySize=auto;html=1;exitX=1;exitY=0.5;exitDx=0;exitDy=0;entryX=0;entryY=0.5;entryDx=0;entryDy=0;endArrow=none;endFill=0;strokeWidth=2;startArrow=classic;startFill=1;" parent="1" source="e5_8AVl35VqmBAM99YCG-7" target="e5_8AVl35VqmBAM99YCG-8" edge="1">
          <mxGeometry relative="1" as="geometry" />
        </mxCell>
        <mxCell id="e5_8AVl35VqmBAM99YCG-7" value="elite" style="rhombus;whiteSpace=wrap;html=1;strokeWidth=2;gradientColor=none;" parent="1" vertex="1">
          <mxGeometry x="1050" y="419.88" width="120" height="80" as="geometry" />
        </mxCell>
        <mxCell id="e5_8AVl35VqmBAM99YCG-8" value="elite_years" style="rounded=0;whiteSpace=wrap;html=1;strokeWidth=2;" parent="1" vertex="1">
          <mxGeometry x="1198" y="439.88" width="120" height="40" as="geometry" />
        </mxCell>
        <mxCell id="e5_8AVl35VqmBAM99YCG-13" style="edgeStyle=orthogonalEdgeStyle;rounded=0;orthogonalLoop=1;jettySize=auto;html=1;exitX=0.5;exitY=0;exitDx=0;exitDy=0;entryX=0.5;entryY=1;entryDx=0;entryDy=0;endArrow=none;endFill=0;" parent="1" source="e5_8AVl35VqmBAM99YCG-11" target="e5_8AVl35VqmBAM99YCG-8" edge="1">
          <mxGeometry relative="1" as="geometry" />
        </mxCell>
        <mxCell id="e5_8AVl35VqmBAM99YCG-11" value="year" style="ellipse;whiteSpace=wrap;html=1;fontSize=10;" parent="1" vertex="1">
          <mxGeometry x="1212" y="519.88" width="92" height="30" as="geometry" />
        </mxCell>
        <mxCell id="c20AXmqo6lOxg8rbnFz8-4" value="Can be&amp;nbsp;one of&lt;br&gt;&lt;ul&gt;&lt;li&gt;dairy-free&lt;/li&gt;&lt;li&gt;gluten-free&lt;/li&gt;&lt;li&gt;vegan&lt;/li&gt;&lt;li&gt;kosher&lt;/li&gt;&lt;li&gt;halal&lt;/li&gt;&lt;li&gt;soy-free&lt;/li&gt;&lt;li&gt;vegetarian&lt;/li&gt;&lt;/ul&gt;" style="text;html=1;align=left;verticalAlign=middle;resizable=0;points=[];autosize=1;" vertex="1" parent="1">
          <mxGeometry x="414" y="524.88" width="110" height="140" as="geometry" />
        </mxCell>
        <mxCell id="c20AXmqo6lOxg8rbnFz8-5" style="edgeStyle=orthogonalEdgeStyle;rounded=0;orthogonalLoop=1;jettySize=auto;html=1;exitX=0.5;exitY=1;exitDx=0;exitDy=0;entryX=0.5;entryY=0;entryDx=0;entryDy=0;startArrow=none;startFill=0;endArrow=none;endFill=0;strokeWidth=1;" edge="1" parent="1" target="c20AXmqo6lOxg8rbnFz8-6">
          <mxGeometry relative="1" as="geometry">
            <mxPoint x="440.01" y="-12.560000000000002" as="targetPoint" />
            <mxPoint x="485.01" y="460" as="sourcePoint" />
            <Array as="points">
              <mxPoint x="485.01" y="470.12" />
              <mxPoint x="520.01" y="470.12" />
            </Array>
          </mxGeometry>
        </mxCell>
        <mxCell id="c20AXmqo6lOxg8rbnFz8-6" value="name" style="ellipse;whiteSpace=wrap;html=1;fontStyle=0;fontSize=10;" vertex="1" parent="1">
          <mxGeometry x="495.01" y="480" width="50" height="30" as="geometry" />
        </mxCell>
        <mxCell id="c20AXmqo6lOxg8rbnFz8-11" style="edgeStyle=orthogonalEdgeStyle;rounded=0;orthogonalLoop=1;jettySize=auto;html=1;exitX=0.5;exitY=0;exitDx=0;exitDy=0;endArrow=none;endFill=0;strokeWidth=1;" edge="1" parent="1" source="c20AXmqo6lOxg8rbnFz8-10">
          <mxGeometry relative="1" as="geometry">
            <mxPoint x="485.01" y="460.12" as="targetPoint" />
            <Array as="points">
              <mxPoint x="450.01" y="470.12" />
              <mxPoint x="485.01" y="470.12" />
            </Array>
          </mxGeometry>
        </mxCell>
        <mxCell id="c20AXmqo6lOxg8rbnFz8-10" value="id" style="ellipse;whiteSpace=wrap;html=1;fontStyle=0;fontSize=10;" vertex="1" parent="1">
          <mxGeometry x="425.01" y="480" width="50" height="30" as="geometry" />
        </mxCell>
      </root>
    </mxGraphModel>
  </diagram>
</mxfile>
